<?xml version="1.0" encoding="UTF-8" standalone="no"?>
<!-- Created with Inkscape (http://www.inkscape.org/) -->
<svg
   xmlns:dc="http://purl.org/dc/elements/1.1/"
   xmlns:cc="http://creativecommons.org/ns#"
   xmlns:rdf="http://www.w3.org/1999/02/22-rdf-syntax-ns#"
   xmlns:svg="http://www.w3.org/2000/svg"
   xmlns="http://www.w3.org/2000/svg"
   xmlns:sodipodi="http://sodipodi.sourceforge.net/DTD/sodipodi-0.dtd"
   xmlns:inkscape="http://www.inkscape.org/namespaces/inkscape"
   width="48"
   height="48"
   id="svg2400"
   sodipodi:version="0.32"
   inkscape:version="0.46"
   version="1.0"
   sodipodi:docname="latex.svg"
   inkscape:output_extension="org.inkscape.output.svg.inkscape">
  <defs
     id="defs2402">
    <inkscape:perspective
       sodipodi:type="inkscape:persp3d"
       inkscape:vp_x="0 : 526.18109 : 1"
       inkscape:vp_y="0 : 1000 : 0"
       inkscape:vp_z="744.09448 : 526.18109 : 1"
       inkscape:persp3d-origin="372.04724 : 350.78739 : 1"
       id="perspective2408" />
  </defs>
  <sodipodi:namedview
     id="base"
     pagecolor="#ffffff"
     bordercolor="#666666"
     borderopacity="1.0"
     gridtolerance="10000"
     guidetolerance="10"
     objecttolerance="10"
     inkscape:pageopacity="0.0"
     inkscape:pageshadow="2"
     inkscape:zoom="2.8"
     inkscape:cx="4.5066992"
     inkscape:cy="24.50715"
     inkscape:document-units="px"
     inkscape:current-layer="layer1"
     showgrid="false"
     inkscape:window-width="933"
     inkscape:window-height="737"
     inkscape:window-x="145"
     inkscape:window-y="0" />
  <metadata
     id="metadata2405">
    <rdf:RDF>
      <cc:Work
         rdf:about="">
        <dc:format>image/svg+xml</dc:format>
        <dc:type
           rdf:resource="http://purl.org/dc/dcmitype/StillImage" />
      </cc:Work>
    </rdf:RDF>
  </metadata>
  <g
     inkscape:label="Layer 1"
     inkscape:groupmode="layer"
     id="layer1">
    <g
       id="g3190"
       transform="matrix(1.3170166,0,0,1.3170166,-4.8826765,-5.1134277)">
      <path
         id="text3184"
         d="M 13.012857,8.0514268 L 13.012857,9.0914268 L 22.372857,22.651427 L 12.492857,36.251427 L 12.492857,37.291427 L 30.852857,37.291427 L 32.452857,30.571427 L 31.372857,30.291427 C 30.172858,33.851423 28.932854,34.451427 26.252857,34.451427 L 15.812857,34.451427 L 25.412857,21.291427 L 17.092857,9.3714268 L 23.812857,9.3714268 C 26.892854,9.3714268 28.052858,9.6114276 28.692857,10.331427 C 29.332856,11.011426 29.812857,12.131429 30.332857,14.011427 L 31.332857,13.891427 C 31.132857,11.651429 30.892857,8.6914262 30.852857,8.0514268 L 13.012857,8.0514268"
         style="font-size:40px;font-style:normal;font-variant:normal;font-weight:normal;font-stretch:normal;fill:#8d8f93;fill-opacity:1;stroke:none;stroke-width:1px;stroke-linecap:butt;stroke-linejoin:miter;stroke-opacity:1;font-family:Adobe Caslon Pro;-inkscape-font-specification:Adobe Caslon Pro" />
      <path
         id="text2410"
         d="M 11.927906,6.9197511 L 11.927906,7.9597511 L 21.287906,21.519751 L 11.407906,35.119751 L 11.407906,36.159751 L 29.767906,36.159751 L 31.367906,29.439751 L 30.287906,29.159751 C 29.087908,32.719748 27.847904,33.319751 25.167906,33.319751 L 14.727906,33.319751 L 24.327906,20.159751 L 16.007906,8.2397511 L 22.727906,8.2397511 C 25.807903,8.2397511 26.967907,8.4797518 27.607906,9.1997511 C 28.247906,9.8797506 28.727907,10.999753 29.247906,12.879752 L 30.247906,12.759752 C 30.047907,10.519754 29.807906,7.5597505 29.767906,6.9197511 L 11.927906,6.9197511"
         style="font-size:40px;font-style:normal;font-variant:normal;font-weight:normal;font-stretch:normal;fill:#007fff;fill-opacity:1;stroke:none;stroke-width:1px;stroke-linecap:butt;stroke-linejoin:miter;stroke-opacity:1;font-family:Adobe Caslon Pro;-inkscape-font-specification:Adobe Caslon Pro" />
    </g>
  </g>
</svg>
