/* XPM */
static char *ANTICLOCKWISE_DOWNWARDS_AND_UPWARDS_OPEN_CIRCLE_ARROWS[] = {
/* columns rows colors chars-per-pixel */
"24 24 76 1 ",
"  c #54728D",
". c #577592",
"X c #5A7996",
"o c #5D7D9C",
"O c #5F809F",
"+ c #5D80A5",
"@ c #6283A3",
"# c #6887A5",
"$ c #6387A8",
"% c #6689AA",
"& c #6A8DAD",
"* c #738CAE",
"= c #7392AD",
"- c #7894AE",
"; c #668BB1",
": c #698FB1",
"> c #6D91B3",
", c #7295B5",
"< c #7997B3",
"1 c #7C98B2",
"2 c #7394B8",
"3 c #7C9DBC",
"4 c #7FA0C0",
"5 c #809CB5",
"6 c #81A0BE",
"7 c #91A8BF",
"8 c #85A5C3",
"9 c #88A7C5",
"0 c #8BA9C5",
"q c #8BAAC8",
"w c #91A7C2",
"e c #94ADC4",
"r c #9AAFC2",
"t c #91AECB",
"y c #9CAFCA",
"u c #93B1CD",
"i c #9CB4CE",
"p c #96B4D0",
"a c #99B6D1",
"s c #9CBAD5",
"d c #9DBBD8",
"f c #A5B3CA",
"g c #A9BBCD",
"h c #A3BDD5",
"j c #A3BED8",
"k c #B3BED2",
"l c #AEC2D5",
"z c #A5C0DA",
"x c #ADC5DB",
"c c #AFC9DF",
"v c #B3C4D3",
"b c #B1C7DD",
"n c #B8C6DB",
"m c #B3C8DC",
"M c #BBCBDB",
"N c #B4CBE1",
"B c #BDD1E4",
"V c #C5D3E2",
"C c #CAD5E2",
"Z c #CADBEB",
"A c #D0DAE4",
"S c #D9DDE7",
"D c #D2DFEB",
"F c #DBDFE8",
"G c #D3E0EB",
"H c #DBE4EC",
"J c #D9E6F1",
"K c #E0E8EF",
"L c #E3EBF2",
"P c #EBEEF3",
"I c #EDF1F5",
"U c #EFF4F8",
"Y c #F3F5F9",
"T c #F6F9FB",
"R c #FEFEFE",
"E c None",
/* pixels */
"EEEEEEEEEEEEEEEEEEEEEEEE",
"EEEEo@###########$@oEEEE",
"EEE&ebmmnnnmmmmMnnle&EEE",
"EE=hBNbccbccbbcbcNNBl&EE",
"E@9bzzjzzjdddsjzzzzzN9@E",
"E%tjjjsssNZJJZcssjdjjt%E",
"E%qsaxBcLRRRRRTJzpsssq%E",
"E%9ppVTTRTJGGLRRIzupp9%E",
"E$8upHRRUxiuuaMYRLatu8#E",
"E+39aYRRTx99qqqbYIxq93@E",
"E@,4xTIHVh999999hiq94>@E",
"EO&,ui0844464466422:>>+E",
"Eo&>>:::,>2,,,>:%2in3&oE",
"Eo%>&&3,:&>::::iCPRK3%oE",
"EX$&,VTM%;&&;&,MRRRC&$XE",
"EX@%%vRU0+$%%$ogRRRl%#XE",
"E.@$$1HRIf*oo*kYRKI7$@.E",
"E.O#@@6HRRPSFYRRA57-@@ E",
"E O@@@@1MIRRRRPv-O@@@O E",
"E X+OOOO@1rgge*OOOOOOo E",
"EE.oOOoOoooooooOOooOo.EE",
"EEEXXOoXoooooooooooo.EEE",
"EEEE .............. EEEE",
"EEEEEEEEEEEEEEEEEEEEEEEE"
};
