/* XPM */
static char *ARROW_POINTING_RIGHTWARDS_THEN_CURVING_UPWARDS[] = {
/* columns rows colors chars-per-pixel */
"24 24 186 2 ",
"   c #4A5F73",
".  c #4A6073",
"X  c #4E6579",
"o  c #4F667B",
"O  c #516A7F",
"+  c #536B81",
"@  c #556E85",
"#  c #577088",
"$  c #57718B",
"%  c #59738B",
"&  c #5B758E",
"*  c #5D7891",
"=  c #5E7991",
"-  c #5D7995",
";  c #5E7A94",
":  c #5F7B94",
">  c #607993",
",  c #617D96",
"<  c #617D97",
"1  c #617E97",
"2  c #647E97",
"3  c #657F97",
"4  c #607C98",
"5  c #617E98",
"6  c #627E98",
"7  c #627F99",
"8  c #637F9B",
"9  c #63809A",
"0  c #65829B",
"q  c #65829D",
"w  c #65839D",
"e  c #66829C",
"r  c #64819E",
"t  c #65829E",
"y  c #67849F",
"u  c #6583A0",
"i  c #6284A2",
"p  c #6384A2",
"a  c #6685A0",
"s  c #6785A0",
"d  c #6785A1",
"f  c #6785A2",
"g  c #6687A5",
"h  c #6887A2",
"j  c #6988A3",
"k  c #6A88A3",
"l  c #6A88A4",
"z  c #6889A6",
"x  c #6B8AA7",
"c  c #6B8BA7",
"v  c #6D8AA4",
"b  c #6E8AA4",
"n  c #6F8CA7",
"m  c #688AA8",
"M  c #6C8BA8",
"N  c #6F8DA9",
"B  c #6C8DAA",
"V  c #6D8DAA",
"C  c #6E8DAA",
"Z  c #6E8EAA",
"A  c #6E8EAB",
"S  c #6D8FAD",
"D  c #6E8FAD",
"F  c #6F90AE",
"G  c #7090AE",
"H  c #7091AF",
"J  c #7694AF",
"K  c #7A93AB",
"L  c #7293B2",
"P  c #7394B2",
"I  c #7394B3",
"U  c #7595B3",
"Y  c #7596B3",
"T  c #7696B4",
"R  c #7697B4",
"E  c #7797B4",
"W  c #7697B6",
"Q  c #7898B5",
"!  c #7D9AB4",
"~  c #7A9AB8",
"^  c #7F9EBB",
"/  c #869DB2",
"(  c #89A1B7",
")  c #86A1BB",
"_  c #81A0BC",
"`  c #82A1BD",
"'  c #83A1BD",
"]  c #84A2BD",
"[  c #84A2BE",
"{  c #8CA5BB",
"}  c #8BA6BE",
"|  c #93A8BB",
" . c #84A3C0",
".. c #87A5C1",
"X. c #8BA7C0",
"o. c #8AA7C3",
"O. c #8AA8C3",
"+. c #8BA8C3",
"@. c #8EAAC3",
"#. c #8BA9C4",
"$. c #8FABC5",
"%. c #8FADC8",
"&. c #91ABC3",
"*. c #97AEC3",
"=. c #90ACC7",
"-. c #90ADC8",
";. c #91ADC8",
":. c #95AFC8",
">. c #9BB2C6",
",. c #96B0C8",
"<. c #94B1CB",
"1. c #93B1CC",
"2. c #94B1CC",
"3. c #96B2CC",
"4. c #96B2CD",
"5. c #96B3CD",
"6. c #9BB3CA",
"7. c #9AB4CD",
"8. c #9DB7CF",
"9. c #9AB7D1",
"0. c #9BB7D1",
"q. c #9BB8D1",
"w. c #9CB8D1",
"e. c #9EBBD4",
"r. c #9FBBD4",
"t. c #A4B5C5",
"y. c #A8BBCC",
"u. c #AEBECC",
"i. c #A6BDD1",
"p. c #A0BCD5",
"a. c #A0BDD5",
"s. c #A4BFD7",
"d. c #AABFD3",
"f. c #A3BFD8",
"g. c #AFC0D0",
"h. c #AAC0D4",
"j. c #A5C0D8",
"k. c #A6C1D8",
"l. c #A6C1D9",
"z. c #A6C2DB",
"x. c #A7C2DB",
"c. c #A8C3DB",
"v. c #A9C4DC",
"b. c #AEC7DD",
"n. c #B1C4D5",
"m. c #B7C9D9",
"M. c #B0C8DE",
"N. c #B3CADF",
"B. c #B5CADD",
"V. c #B8CADA",
"C. c #B3CBE1",
"Z. c #B4CBE1",
"A. c #B7CEE2",
"S. c #BBCEE0",
"D. c #C0CCD7",
"F. c #C3CFD9",
"G. c #C4D0DC",
"H. c #C6D2DE",
"J. c #C9D4DE",
"K. c #C0D3E5",
"L. c #CBDBE8",
"P. c #D1DFEB",
"I. c #D6DFE8",
"U. c #D5E0EA",
"Y. c #DFE5EB",
"T. c #D9E3EC",
"R. c #DFE5EC",
"E. c #E1EAF2",
"W. c #E4EAF0",
"Q. c #E7ECF0",
"!. c #E5EDF4",
"~. c #EEF2F6",
"^. c #EEF3F7",
"/. c #EFF3F7",
"(. c #F1F4F8",
"). c #F3F6F9",
"_. c #F4F7F9",
"`. c #F6F8FA",
"'. c #F7FAFC",
"]. c #FAFBFD",
"[. c #FBFCFD",
"{. c #FDFDFE",
"}. c #FDFEFE",
"|. c #FEFFFF",
" X c #FFFFFF",
".X c None",
/* pixels */
".X.X.X.X.X.X.X.X.X.X.X.X.X.X.X.X.X.X.X.X.X.X.X.X",
".X.X.X.X$ > 2 3 3 3 3 3 3 3 3 3 3 2 > $ .X.X.X.X",
".X.X.Xb *.n.m.V.V.V.V.V.V.V.V.V.V.m.n.*.b .X.X.X",
".X.Xn h.K.A.Z.C.C.C.C.C.C.C.C.C.C.Z.A.K.h.n .X.X",
".X- @.N.v.c.c.c.c.c.c.c.c.z.x.c.c.c.c.v.N.@.- .X",
".Xr <.l.j.j.j.j.j.j.j.j.f.M.b.f.j.j.j.j.l.<.r .X",
".Xu %.a.p.p.p.p.p.p.p.e.k.!.E.s.r.p.p.p.a.%.u .X",
".Xr #.w.q.q.q.q.q.q.0.0.P.|.}.L.9.0.q.q.w.#.r .X",
".X8 ..5.4.4.4.4.4.3.2.S.]. X X'.B.1.3.4.5...8 .X",
".X4 ^ -.;.-.-.-.-.=.8.T.^.}.{.~.U.7.=.;.-.^ 4 .X",
".X; Y  .o.+.+.+.+.o.$.:.d.`.).i.:.$.O.o. .Y ; .X",
".X* H W ~ ^ _ ' ] [ [ ` 6._.(.,._ _ ^ ~ W H * .X",
".X& A L L P I U T E Q R &.)./.X.I I P L L A & .X",
".X% M G G G F F F F F S } ).~.) D F G G G M % .X",
".X# l C V V V V V Z Z m >.[.W.! B V V V C l # .X",
".X@ d c c c x z g p i J I. XG.N x c c c c d @ .X",
".X+ w k j j f { H.y.g.R. XQ.( h j j j j k w + .X",
".XO 9 s s a v J. X X X{.Y.| s s s s s s s 9 O .X",
".Xo < t q q y / u.F.D.t.K q q q q q q q t < o .X",
".X. = 9 9 9 9 7 9 e 0 7 7 9 9 9 9 9 9 9 9 = . .X",
".X.X@ , 6 6 6 6 1 1 1 5 6 6 6 6 6 6 6 6 , @ .X.X",
".X.X.X@ * : : : : : : : : : : : : : : * @ .X.X.X",
".X.X.X.X  X o o o o o o o o o o o o X   .X.X.X.X",
".X.X.X.X.X.X.X.X.X.X.X.X.X.X.X.X.X.X.X.X.X.X.X.X"
};
