/* XPM */
static char *BLACK_RIGHTWARDS_ARROW[] = {
/* columns rows colors chars-per-pixel */
"24 24 178 2 ",
"   c #48627A",
".  c #49637B",
"X  c #4C6781",
"o  c #4D6882",
"O  c #4E6983",
"+  c #4E6A83",
"@  c #506D87",
"#  c #516E8A",
"$  c #53708C",
"%  c #53718C",
"&  c #53718D",
"*  c #54728F",
"=  c #547292",
"-  c #567492",
";  c #577695",
":  c #597898",
">  c #5A7A98",
",  c #5B7B98",
"<  c #59799A",
"1  c #5B7A9A",
"2  c #5C7A99",
"3  c #5C7D9B",
"4  c #5C7C9D",
"5  c #5D7E9D",
"6  c #5E7F9D",
"7  c #5E7F9E",
"8  c #617F9D",
"9  c #617F9E",
"0  c #5E7FA0",
"q  c #5F81A0",
"w  c #5F80A2",
"e  c #5F80A3",
"r  c #6081A0",
"t  c #6183A2",
"y  c #6283A3",
"u  c #6184A2",
"i  c #6284A2",
"p  c #6284A3",
"a  c #6385A3",
"s  c #6182A5",
"d  c #6284A4",
"f  c #6384A5",
"g  c #6385A5",
"h  c #6386A5",
"j  c #6386A7",
"k  c #6485A4",
"l  c #6487A7",
"z  c #6587A7",
"x  c #6387A8",
"c  c #6587A8",
"v  c #6588A8",
"b  c #6488A9",
"n  c #6689AA",
"m  c #668AAA",
"M  c #678AAA",
"N  c #678BAB",
"B  c #6A89A8",
"V  c #6A8BAB",
"C  c #688CAD",
"Z  c #698DAE",
"A  c #688EAF",
"S  c #6A8EAF",
"D  c #7190AD",
"F  c #7291AD",
"G  c #698FB0",
"H  c #6A8FB1",
"J  c #6A90B1",
"K  c #6A90B3",
"L  c #6C91B4",
"P  c #6D93B6",
"I  c #6F94B5",
"U  c #6F94B7",
"Y  c #7494B1",
"T  c #7494B2",
"R  c #7194B4",
"E  c #7296B7",
"W  c #7898B6",
"Q  c #7C99B5",
"!  c #7498BA",
"~  c #7A9CBC",
"^  c #7D9FC0",
"/  c #7DA0C1",
"(  c #7FA0C0",
")  c #8AA5BE",
"_  c #82A3C2",
"`  c #84A4C3",
"'  c #84A6C5",
"]  c #86A6C5",
"[  c #89A7C4",
"{  c #8CA9C2",
"}  c #8DAAC5",
"|  c #8BAAC8",
" . c #8AABC9",
".. c #8CABC8",
"X. c #8DABC8",
"o. c #8CABC9",
"O. c #8BACCA",
"+. c #8CACCA",
"@. c #8FADCB",
"#. c #94ADC6",
"$. c #93AFC9",
"%. c #90AECB",
"&. c #90AFCC",
"*. c #92B0CC",
"=. c #93B0CD",
"-. c #93B1CD",
";. c #94B2CF",
":. c #9AB2C8",
">. c #92B3D0",
",. c #93B3D1",
"<. c #97B4D0",
"1. c #97B5D0",
"2. c #97B6D1",
"3. c #96B6D3",
"4. c #98B4D0",
"5. c #98B5D0",
"6. c #98B5D1",
"7. c #9BB8D3",
"8. c #9FB8D0",
"9. c #9CB9D4",
"0. c #9DB9D4",
"q. c #9DBAD4",
"w. c #9CBAD5",
"e. c #9EBAD4",
"r. c #9FBAD5",
"t. c #A4B8CA",
"y. c #A3B9CD",
"u. c #A6BBCE",
"i. c #A7BCCF",
"p. c #A1BBD4",
"a. c #A0BBD5",
"s. c #A0BCD6",
"d. c #A1BDD7",
"f. c #A2BDD6",
"g. c #A3BDD6",
"h. c #A7BFD5",
"j. c #A3BED8",
"k. c #ABC0D3",
"l. c #ACC2D7",
"z. c #AFC3D6",
"x. c #A4C0DA",
"c. c #A5C0DA",
"v. c #ACC3DA",
"b. c #B0C3D4",
"n. c #B6C8DA",
"m. c #B6C9DA",
"M. c #B0C8DE",
"N. c #B1C8DE",
"B. c #B1C8DF",
"V. c #B2CADF",
"C. c #B9CBDB",
"Z. c #B4CAE0",
"A. c #BDD1E4",
"S. c #CCD7E2",
"D. c #C9DAE9",
"F. c #D3E2ED",
"G. c #DAE3EA",
"H. c #E3EAF0",
"J. c #E0E9F2",
"K. c #E6ECF1",
"L. c #E7ECF2",
"P. c #EAF0F6",
"I. c #EDF2F7",
"U. c #F1F4F7",
"Y. c #F1F5F9",
"T. c #F2F6F9",
"R. c #F3F6F9",
"E. c #F4F7FA",
"W. c #F5F7FA",
"Q. c #F6F8FA",
"!. c #F9FAFC",
"~. c #FAFCFD",
"^. c #FBFCFD",
"/. c #FDFEFE",
"(. c #FEFEFE",
"). c #FEFFFF",
"_. c #FFFFFF",
"`. c None",
/* pixels */
"`.`.`.`.`.`.`.`.`.`.`.`.`.`.`.`.`.`.`.`.`.`.`.`.",
"`.`.`.`.= 2 8 9 9 9 9 9 9 9 9 9 9 8 2 = `.`.`.`.",
"`.`.`.B #.z.n.m.m.m.m.m.m.m.m.m.m.n.z.#.B `.`.`.",
"`.`.V h.A.Z.B.M.M.M.M.M.M.M.M.M.M.B.Z.A.h.V `.`.",
"`.< [ N.c.x.c.c.c.c.c.c.c.c.c.c.c.c.x.c.N.[ < `.",
"`.w %.j.d.d.d.d.d.d.d.s.w.s.d.d.d.d.d.d.j.%.w `.",
"`.s | q.0.0.0.0.0.0.9.f.V.3.7.0.0.0.0.0.q.| s `.",
"`.e ] 6.1.5.5.5.5.5.<.g.P.D.,.;.5.1.1.1.6.] e `.",
"`.0 _ -.&.+.O.O.O.O. .4.I.).F.>.+.*.*.*.=._ 0 `.",
"`.4 ~ ..@.e.a.a.a.a.r.v.Y._._.J.2.' ..X.o.~ 4 `.",
"`.1 I ^ 8.T.^.~.~.~.~.^.)._._._.P.p./ ` ( I 1 `.",
"`.: H P $.Q._._._._._._._._._._._.E.l.! U H : `.",
"`.; Z K } W._._._._._._._._._._._.!.C.E L Z ; `.",
"`.- N A { R.(./././././._._._._.U.k.R G J N - `.",
"`.* v C W y.i.i.i.i.u.b.U._._.L.:.S C Z Z v * `.",
"`.$ h M n b b b b b x T K._.G.) n n m m M h $ `.",
"`.# y c z z z z z z j Y H.S.Q j l z z c c y # `.",
"`.@ r g g g g g g g f D t.F d g g g g g g r @ `.",
"`.O 6 p i u u u u u y a k t u u u u u i p 6 + `.",
"`.. , r r r r r r r r r q r r r r r r r r , . `.",
"`.`.% 5 7 7 7 7 7 7 7 7 7 7 7 7 7 7 7 7 5 % `.`.",
"`.`.`.& > 3 3 3 3 3 3 3 3 3 3 3 3 3 3 > & `.`.`.",
"`.`.`.`.  X o o o o o o o o o o o o X   `.`.`.`.",
"`.`.`.`.`.`.`.`.`.`.`.`.`.`.`.`.`.`.`.`.`.`.`.`."
};
