/* XPM */
static char *CHRISTMAS_TREE[] = {
/* columns rows colors chars-per-pixel */
"24 24 179 2 ",
"   c #3A500A",
".  c #3B540C",
"X  c #3D540C",
"o  c #3C560C",
"O  c #3F580D",
"+  c #40560C",
"@  c #41560C",
"#  c #4E550D",
"$  c #4D550F",
"%  c #445D0D",
"&  c #495B0F",
"*  c #4A5C0D",
"=  c #69490E",
"-  c #6A490E",
";  c #49630F",
":  c #4C630F",
">  c #4F6410",
",  c #506A10",
"<  c #506C11",
"1  c #536F12",
"2  c #586D12",
"3  c #596D12",
"4  c #5A6B16",
"5  c #457417",
"6  c #417C1B",
"7  c #557212",
"8  c #587111",
"9  c #597012",
"0  c #5A7213",
"q  c #5D7614",
"w  c #587A15",
"e  c #5F7D15",
"r  c #5E7D19",
"t  c #607415",
"y  c #617615",
"u  c #617715",
"i  c #617D15",
"p  c #667E17",
"a  c #7A7C19",
"s  c #5F7C26",
"d  c #426E30",
"f  c #747B23",
"g  c #356843",
"h  c #855F14",
"j  c #865E15",
"k  c #8B6215",
"l  c #8C6216",
"z  c #A5751C",
"x  c #A5761C",
"c  c #AE7C1E",
"v  c #876F21",
"b  c #9C6F28",
"n  c #8B7420",
"m  c #B2692A",
"M  c #CE6134",
"N  c #CA6A3F",
"B  c #FF5E57",
"V  c #2E8F2B",
"C  c #35A831",
"Z  c #3FB93C",
"A  c #5D831D",
"S  c #6A8017",
"D  c #6B8217",
"F  c #6E8017",
"G  c #6E8317",
"H  c #6B8018",
"J  c #6A8118",
"K  c #6A8019",
"L  c #6B8318",
"P  c #6D8219",
"I  c #6D8319",
"U  c #6B871B",
"Y  c #6D8518",
"T  c #6E8419",
"R  c #6F841A",
"E  c #6F851A",
"W  c #6F861A",
"Q  c #6E8919",
"!  c #6E8A1A",
"~  c #6C8A1D",
"^  c #6D8B1F",
"/  c #70851A",
"(  c #768619",
")  c #718919",
"_  c #718A1A",
"`  c #718B1A",
"'  c #738C1B",
"]  c #738E1B",
"[  c #778C1A",
"{  c #758E1B",
"}  c #768F1B",
"|  c #74891E",
" . c #7D8A1A",
".. c #798C1B",
"X. c #73911C",
"o. c #76901C",
"O. c #78901C",
"+. c #7B951D",
"@. c #78941E",
"#. c #7C951D",
"$. c #7C941E",
"%. c #7D941E",
"&. c #6F8D26",
"*. c #679D22",
"=. c #779925",
"-. c #779D36",
";. c #7C9739",
":. c #779F3C",
">. c #56A32F",
",. c #5CB12E",
"<. c #4BAC3B",
"1. c #69AA3A",
"2. c #7FA435",
"3. c #23BB40",
"4. c #22BE48",
"5. c #4B8650",
"6. c #65AF47",
"7. c #418D71",
"8. c #499070",
"9. c #61A36A",
"0. c #2CD755",
"q. c #08E86A",
"w. c #1AE369",
"e. c #48CD62",
"r. c #8A9619",
"t. c #80991E",
"y. c #839B1F",
"u. c #849A1E",
"i. c #849C1F",
"p. c #889A1F",
"a. c #BF921D",
"s. c #9D8E27",
"d. c #819622",
"f. c #839C20",
"g. c #8C9923",
"h. c #979F20",
"j. c #9F9828",
"k. c #AA802D",
"l. c #B5892F",
"z. c #A9952F",
"x. c #84A422",
"c. c #88A120",
"v. c #89A220",
"b. c #8DA120",
"n. c #8CA521",
"m. c #8DA522",
"M. c #8CA622",
"N. c #8DA622",
"B. c #8EA622",
"V. c #8EA623",
"C. c #89A426",
"Z. c #90A220",
"A. c #9AA324",
"S. c #90A922",
"D. c #91A923",
"F. c #90AA23",
"G. c #8DB428",
"H. c #97B834",
"J. c #9BBC35",
"K. c #ACAB2E",
"L. c #A8BA27",
"P. c #A3BF2B",
"I. c #B1B525",
"U. c #B7BD2E",
"Y. c #C1941C",
"T. c #C7C529",
"R. c #C8C129",
"E. c #D2CC3D",
"W. c #ECDD34",
"Q. c #F4E236",
"!. c #C68E45",
"~. c #CBA25E",
"^. c #DCD542",
"/. c #F1C975",
"(. c #F5CD77",
"). c #5BAC84",
"_. c #E5CCA6",
"`. c #E8D0AC",
"'. c None",
/* pixels */
"'.'.'.'.'.'.'.'.'.'.'.'.'.'.'.'.'.'.'.'.'.'.'.'.",
"'.'.'.'.'.'.'.'.'.'.'.`._.'.'.'.'.'.'.'.'.'.'.'.",
"'.'.'.'.'.'.'.'.'.'.~.(./.'.'.'.'.'.'.'.'.'.'.'.",
"'.'.'.'.'.'.'.'.'.'.'.Y.a.'.'.'.'.'.'.'.'.'.'.'.",
"'.'.'.'.'.'.'.'.'.'.f ;.g.a '.'.'.'.'.'.'.'.'.'.",
"'.'.'.'.'.'.'.'.'.G :.).J.B.P '.'.'.'.'.'.'.'.'.",
"'.'.'.'.'.'.'.'.'.E C.H.P.V.R '.'.'.'.'.'.'.'.'.",
"'.'.'.'.'.'.'.'.'.'.L v.c.J '.'.'.'.'.'.'.'.'.'.",
"'.'.'.'.'.'.'.'.'.v k.f.1.6.A '.'.'.'.'.'.'.'.'.",
"'.'.'.'.'.'.'.y } s.l.G.0.w.,.[ y '.'.'.'.'.'.'.",
"'.'.'.'.'.'.'./ y.#.' x.Z 4.*.u./ '.'.'.'.'.'.'.",
"'.'.'.'.'.'.'.'.K d.$.O.] X.&.s '.'.'.'.'.'.'.'.",
"'.'.'.'.'.'.'.'.A.^.U.N.m.S.9.8.'.'.'.'.'.'.'.'.",
"'.'.'.'.'.'.'.I I.Q.T.D.F.F.2.-.T '.'.'.'.'.'.'.",
"'.'.'.'.& 2 S t.b.h.Z.M.n.z.!.j.t.S 3 & '.'.'.'.",
"'.'.'.'.'.t H W L q p _ ( M B m Y H t '.'.'.'.'.",
"'.'.'.'.'.'.'.u ) { { %.D b N n 0 '.'.'.'.'.'.'.",
"'.'.'.'.'.'.> U =.@.i.L.+.{ ..o.| 4 '.'.'.'.'.'.",
"'.'.'.'.'.@ 7 <.e.>.Q ` ! ^ ~ p.E.K.* '.'.'.'.'.",
"'.'.'.  % , w 3.q.C i e r 7.5.r.W.R.9 %   '.'.'.",
"'.'.'.X ; < 1 6 V 5 : # $ g d 8  .F < ; X '.'.'.",
"'.'.'.'.'.'.O + '.'.'.h h '.'.'.. o '.'.'.'.'.'.",
"'.'.'.'.'.'.'.'.'.'.j c c j '.'.'.'.'.'.'.'.'.'.",
"'.'.'.'.'.'.'.'.'.= k z x l - '.'.'.'.'.'.'.'.'."
};
