/* XPM */
static char *DOWNWARDS_BLACK_ARROW[] = {
/* columns rows colors chars-per-pixel */
"24 24 143 2 ",
"   c #48627A",
".  c #49637B",
"X  c #4C6781",
"o  c #4D6882",
"O  c #4E6983",
"+  c #4E6A83",
"@  c #506D87",
"#  c #516E8A",
"$  c #53708C",
"%  c #53718C",
"&  c #53718D",
"*  c #54728F",
"=  c #547292",
"-  c #567492",
";  c #577695",
":  c #597898",
">  c #5A7A98",
",  c #5B7B98",
"<  c #59799A",
"1  c #5B7A9A",
"2  c #5C7A99",
"3  c #5C7D9B",
"4  c #5C7C9D",
"5  c #5D7E9D",
"6  c #5E7F9D",
"7  c #5E7E9E",
"8  c #5E7F9E",
"9  c #617F9D",
"0  c #617F9E",
"q  c #5E7FA0",
"w  c #5F80A0",
"e  c #5F80A2",
"r  c #5F80A3",
"t  c #6081A0",
"y  c #6183A2",
"u  c #6283A3",
"i  c #6184A2",
"p  c #6284A2",
"a  c #6284A3",
"s  c #6182A5",
"d  c #6385A5",
"f  c #6386A5",
"g  c #6587A6",
"h  c #6487A7",
"j  c #6587A7",
"k  c #6887A5",
"l  c #6889A6",
"z  c #6587A8",
"x  c #6588A8",
"c  c #6589A9",
"v  c #668AAA",
"b  c #678AAA",
"n  c #678BAB",
"m  c #678CAD",
"M  c #6A89A8",
"N  c #6A8BAB",
"B  c #698DAE",
"V  c #698FB0",
"C  c #6A8FB1",
"Z  c #6A90B0",
"A  c #6A90B1",
"S  c #6C91B4",
"D  c #6D92B4",
"F  c #6F94B5",
"G  c #6F94B7",
"H  c #7496B9",
"J  c #7697BA",
"K  c #7498B9",
"L  c #7798BA",
"P  c #799AB8",
"I  c #789BBB",
"U  c #7F9DB9",
"Y  c #7A9CBC",
"T  c #7FA0C0",
"R  c #8AA5BD",
"E  c #82A3C2",
"W  c #84A4C3",
"Q  c #85A5C3",
"!  c #86A6C4",
"~  c #87A6C4",
"^  c #86A6C5",
"/  c #89A7C4",
"(  c #8AA9C8",
")  c #8BAAC8",
"_  c #8DABC8",
"`  c #8CABC9",
"'  c #97AEC4",
"]  c #94ADC6",
"[  c #98AFC4",
"{  c #90AECB",
"}  c #90AFCB",
"|  c #92B0CC",
" . c #93B0CD",
".. c #96B4D0",
"X. c #97B5D0",
"o. c #98B5D1",
"O. c #9BB8D3",
"+. c #9DB9D4",
"@. c #9DBAD4",
"#. c #A1B7CF",
"$. c #A7BACC",
"%. c #A8BACD",
"&. c #A0BCD6",
"*. c #A1BDD7",
"=. c #A7BFD5",
"-. c #A3BED8",
";. c #AEC1D7",
":. c #AFC3D6",
">. c #A4C0DA",
",. c #A5C0DA",
"<. c #A4C2DC",
"1. c #A5C2DC",
"2. c #AFC6DD",
"3. c #AFC7DD",
"4. c #B6C5D4",
"5. c #B0C7DE",
"6. c #B5C8DB",
"7. c #B6C8DA",
"8. c #B6C9DA",
"9. c #B0C8DE",
"0. c #B1C8DE",
"q. c #B1C8DF",
"w. c #B9CCDE",
"e. c #B4CAE0",
"r. c #BDCFE1",
"t. c #BDD1E4",
"y. c #C0D2E3",
"u. c #C1D3E5",
"i. c #C3D5E5",
"p. c #CEDAE5",
"a. c #DAE3EB",
"s. c #DCE3ED",
"d. c #DFE5EF",
"f. c #E7ECF1",
"g. c #ECF0F5",
"h. c #F0F3F6",
"j. c #F0F3F7",
"k. c #F1F6FA",
"l. c #F3F7FB",
"z. c #F8F9FB",
"x. c #FDFEFE",
"c. c #FFFFFF",
"v. c None",
/* pixels */
"v.v.v.v.v.v.v.v.v.v.v.v.v.v.v.v.v.v.v.v.v.v.v.v.",
"v.v.v.v.= 2 9 0 0 0 0 0 0 0 0 0 0 9 2 = v.v.v.v.",
"v.v.v.M ] :.7.8.8.8.8.8.8.8.8.8.8.7.:.] M v.v.v.",
"v.v.N =.t.e.q.9.9.5.3.2.2.3.5.9.9.q.e.t.=.N v.v.",
"v.< / 0.,.,.,.,.,.>.1.<.<.1.>.,.,.,.,.,.0./ < v.",
"v.e { -.*.*.*.*.&.u.k.l.l.k.u.&.*.*.*.*.-.{ e v.",
"v.s ) @.+.+.+.+.O.i.x.c.c.x.i.O.+.+.+.+.@.) s v.",
"v.r ^ o.X.X.X.X...y.x.c.c.x.y...X.X.X.X.o.^ r v.",
"v.q E  .| | | | } r.x.c.c.x.r.} | | | |  .E q v.",
"v.4 Y ` _ _ _ _ ( w.x.c.c.x.w.( _ _ _ _ ` Y 4 v.",
"v.1 F T Q ~ ! ! W 6.x.c.c.x.6.W ! ! ~ Q T F 1 v.",
"v.: C G K I L J H ;.x.c.c.x.;.H J L I K G C : v.",
"v.; B S S D #.s.d.g.c.c.c.c.g.d.s.#.D S S B ; v.",
"v.- n A Z V P p.c.c.c.c.c.c.c.c.p.P V Z A n - v.",
"v.* x B B B m U a.c.c.c.c.c.c.a.U m B B B x * v.",
"v.$ f b v v v c R f.c.c.c.c.f.R c v v v b f $ v.",
"v.# u z z j j h h ' h.c.c.j.[ h h j j z z u # v.",
"v.@ t d d d d d d g $.z.z.%.g d d d d d d t @ v.",
"v.O 6 a p i i i p y l 4.4.l y p i i i p a 6 + v.",
"v.. , t t t t t t t w k k w t t t t t t t , . v.",
"v.v.% 5 8 8 8 8 8 8 8 7 7 8 8 8 8 8 8 8 5 % v.v.",
"v.v.v.& > 3 3 3 3 3 3 3 3 3 3 3 3 3 3 > & v.v.v.",
"v.v.v.v.  X o o o o o o o o o o o o X   v.v.v.v.",
"v.v.v.v.v.v.v.v.v.v.v.v.v.v.v.v.v.v.v.v.v.v.v.v."
};
