/* XPM */
static char *OK_HAND_SIGN[] = {
/* columns rows colors chars-per-pixel */
"24 24 164 2 ",
"   c #8E5F3F",
".  c #915D3A",
"X  c #935E3A",
"o  c #99623D",
"O  c #A16C49",
"+  c #A36F4B",
"@  c #A1704E",
"#  c #AC724A",
"$  c #AE744D",
"%  c #B3744A",
"&  c #B0754C",
"*  c #B1764E",
"=  c #A77450",
"-  c #AB7B59",
";  c #B47C56",
":  c #B87C54",
">  c #BA7F57",
",  c #BB7F57",
"<  c #B77F59",
"1  c #AE805F",
"2  c #BF8056",
"3  c #BD8158",
"4  c #BD845D",
"5  c #AD8262",
"6  c #B48765",
"7  c #B78765",
"8  c #BB8661",
"9  c #B88662",
"0  c #B68A68",
"q  c #B78C6B",
"w  c #B98B68",
"e  c #B88B6A",
"r  c #BC8E6B",
"t  c #B98E6E",
"y  c #BC8F6D",
"u  c #BA9577",
"i  c #C18156",
"p  c #C88B61",
"a  c #C88B62",
"s  c #C88C62",
"d  c #C38E69",
"f  c #C1916E",
"g  c #CA926B",
"h  c #CE946B",
"j  c #C19573",
"k  c #C19575",
"l  c #C69774",
"z  c #C49776",
"x  c #C39978",
"c  c #C89A78",
"v  c #CC9E7B",
"b  c #D29C75",
"n  c #D69F77",
"m  c #CBA07E",
"M  c #CEA17E",
"N  c #D3A27D",
"B  c #D6A37E",
"V  c #DAA57F",
"C  c #DAA67F",
"Z  c #C7A182",
"A  c #C8A384",
"S  c #CAA485",
"D  c #CCA585",
"F  c #CDA687",
"G  c #CCA889",
"H  c #DBA780",
"J  c #DAA782",
"K  c #D7A985",
"L  c #DAA883",
"P  c #DCA984",
"I  c #DDAA85",
"U  c #D3AA8A",
"Y  c #D4AA88",
"T  c #D6AD8B",
"R  c #DDAE8A",
"E  c #DEB28D",
"W  c #D4B092",
"Q  c #D3B597",
"!  c #D7B494",
"~  c #D9B292",
"^  c #D4B698",
"/  c #D9B798",
"(  c #DAB898",
")  c #DAB99B",
"_  c #DDB899",
"`  c #DEB998",
"'  c #DFBD9D",
"]  c #DEBD9E",
"[  c #E0B28E",
"{  c #E4B996",
"}  c #E5BA98",
"|  c #E5BB99",
" . c #E2BD9C",
".. c #E3BD9C",
"X. c #E1BF9D",
"o. c #E2BF9E",
"O. c #E7BE9C",
"+. c #E7BF9E",
"@. c #E8C09E",
"#. c #E8C19F",
"$. c #DDC3A4",
"%. c #DEC5A5",
"&. c #E2C2A2",
"*. c #E5C2A1",
"=. c #E3C3A4",
"-. c #E6C6A5",
";. c #E7C6A7",
":. c #E9C1A0",
">. c #E9C2A1",
",. c #E8C4A3",
"<. c #EAC5A5",
"1. c #EBC6A6",
"2. c #E9C9A7",
"3. c #E7CBAB",
"4. c #E3CCAC",
"5. c #E3CDAD",
"6. c #E6CFAE",
"7. c #E9C8A8",
"8. c #EBC8A8",
"9. c #EBC9A8",
"0. c #EAC9A9",
"q. c #E9CAA9",
"w. c #ECC9A9",
"e. c #ECCAAA",
"r. c #EDCAAB",
"t. c #EDCBAB",
"y. c #EACCAB",
"u. c #E8CDAD",
"i. c #EACDAC",
"p. c #EBCEAC",
"a. c #EBCFAD",
"s. c #EBCDAE",
"d. c #EDCCAC",
"f. c #EDCDAC",
"g. c #EECCAC",
"h. c #EECDAD",
"j. c #ECCFAF",
"k. c #EECEAE",
"l. c #EFCFAF",
"z. c #EBD0AE",
"x. c #EBD0AF",
"c. c #EFD0B0",
"v. c #EED0B1",
"b. c #EFD1B2",
"n. c #EFD2B3",
"m. c #EFD3B4",
"M. c #EAD6B5",
"N. c #EFD4B4",
"B. c #EFD5B5",
"V. c #ECD6B4",
"C. c #EDD6B5",
"Z. c #ECD7B5",
"A. c #EDD7B6",
"S. c #EFD6B6",
"D. c #EED7B6",
"F. c #EAD9B7",
"G. c #EBD9B7",
"H. c #ECD9B7",
"J. c #EFD8B7",
"K. c #EED9B7",
"L. c #EBD9B8",
"P. c #EDD9B8",
"I. c #ECDAB8",
"U. c None",
/* pixels */
"U.U.U.U.U.U.U.U.U.U.U.U.U.U.U.U.U.U.U.U.U.U.U.U.",
"U.U.U.U.U.U.U.U.U.U.U.U.U.U.U.U.U.U.U.U.U.U.U.U.",
"U.U.U.U.U.U.U.U.U.U.U.U.z _ Z U.U.U.U.U.U.U.U.U.",
"U.U.U.U.U.U.U.U.U.U.U.U.d >.' U.U.U.U.U.U.U.U.U.",
"U.U.U.U.U.U.U.U.U.U.U.< 2 L 8.W U.U.U.U.U.U.U.U.",
"U.U.U.U.U.U.U.U.U.U.U.8 p a +.;.A U.U.U.U.U.U.U.",
"U.U.U.U.U.U.U.U.U.U.U.U.; i J h.] U.U.U.U.U.U.U.",
"U.U.U.U.U.U.U.U.U.U.U.U.U.& s #.s.S U.U.U.U.U.U.",
"U.U.U.U.U.U.U.U.U.U.U.U.U.U.% R v.! U.U.U.U.U.U.",
"U.U.U.U.U.U.U.^ %.4.5.$.Q u * b d.=.U.U.U.U.U.U.",
"U.U.U.U.U.U.D p.a.i.x.C.M.6.X.E #.0.F U.U.U.U.U.",
"U.U.U.U.U.U.5 j e 6 y Y 2.A.I.Z.z.9.~ U.U.U.U.U.",
"U.U.U.U.q U 0 U.U.U.U.  7 ` C.G.F.V...k U.U.U.U.",
"U.U.U.U.t 7.-.x U.U.U.U.U.r y.P.F.F.q.c U.U.U.U.",
"U.U.U.U.1 o.J.( U.U.U.U.U.l p.K.H.L.y.f U.U.U.U.",
"U.U.U.U.U.T B.u.G U.U.U.m *.D.K.K.D. .- U.U.U.U.",
"U.U.U.U.U.w ,.S.3.) / &.j.S.S.B.N.f.M U.U.U.U.U.",
"U.U.U.U.U.U.v e.N.m.n.n.b.c.l.k.t.| 9 U.U.U.U.U.",
"U.U.U.U.U.U.@ K 1.g.g.g.g.r.w.<.O.B + U.U.U.U.U.",
"U.U.U.U.U.U.U.= N } @.:.#.O.{ [ H 4 U.U.U.U.U.U.",
"U.U.U.U.U.U.U.U.O g C I P V n h > X U.U.U.U.U.U.",
"U.U.U.U.U.U.U.U.U.. $ , 3 : # o U.U.U.U.U.U.U.U.",
"U.U.U.U.U.U.U.U.U.U.U.U.U.U.U.U.U.U.U.U.U.U.U.U.",
"U.U.U.U.U.U.U.U.U.U.U.U.U.U.U.U.U.U.U.U.U.U.U.U."
};
