/* XPM */
static char *RIGHT_POINTING_MAGNIFYING_GLASS[] = {
/* columns rows colors chars-per-pixel */
"24 24 90 1 ",
"  c #040404",
". c #0C0C0C",
"X c #0E0E0E",
"o c #0F0F0F",
"O c #101010",
"+ c #121212",
"@ c #151515",
"# c #161616",
"$ c #171717",
"% c #191919",
"& c #1A1A1A",
"* c #1D1D1D",
"= c #1E1E1E",
"- c #202020",
"; c #222222",
": c #262626",
"> c #272727",
", c #282828",
"< c #2A2A2A",
"1 c #2C2C2C",
"2 c #323232",
"3 c #383838",
"4 c #393939",
"5 c #3D3D3D",
"6 c #424242",
"7 c #444444",
"8 c #494949",
"9 c #4A4A4A",
"0 c #4E4E4E",
"q c #535353",
"w c #545454",
"e c #575757",
"r c #585858",
"t c #5B5B5B",
"y c #5F5F5F",
"u c #646464",
"i c #656565",
"p c #707070",
"a c #767676",
"s c #7B7B7B",
"d c #8C8C8C",
"f c #8D8D8D",
"g c #8E8E8E",
"h c #909090",
"j c #919191",
"k c #919192",
"l c #929292",
"z c #969696",
"x c #979797",
"c c #989898",
"v c #9B9B9B",
"b c #9C9C9C",
"n c #9E9E9E",
"m c #9F9F9F",
"M c #A0A0A0",
"N c #A1A1A1",
"B c #A4A4A4",
"V c #A5A5A5",
"C c #A6A6A6",
"Z c #A8A8A8",
"A c #A8A8A9",
"S c #A9A9A9",
"D c #AAAAAA",
"F c #B0B0B0",
"G c #B1B1B1",
"H c #B5B5B5",
"J c #B6B6B6",
"K c #B6B7B7",
"L c #BBBBBB",
"P c #BCBCBC",
"I c #BEBEBE",
"U c #BFBFBF",
"Y c #C1C1C1",
"T c #C2C2C2",
"R c #C2C2C3",
"E c #CBCBCB",
"W c #CCCCCC",
"Q c #CDCDCD",
"! c #CFCFCF",
"~ c #D0D0D0",
"^ c #D2D2D2",
"/ c #D4D4D4",
"( c #D8D8D8",
") c #DADADA",
"_ c #DBDBDB",
"` c #F6F7F7",
"' c #F7F7F7",
"] c #F8F9F9",
"[ c #F9FAFA",
"{ c None",
/* pixels */
"{{{{{{{{{{{{{{{{{{{{{{{{",
"{{{{{{{{{{{{{_))_{{{{{{{",
"{{{{{{{{{{{(^TKJU!({{{{{",
"{{{{{{{{{/^P{{{{{{G~/{{{",
"{{{{{{{{{Q{{{][[]{{{W{{{",
"{{{{{{{{EH{{'````'{{SE{{",
"{{{{{{{{R{{{{{{{{{{{{I{{",
"{{{{{{{YH{{{{{{{{{{{{DY{",
"{{{{{{{LA{{{{{{{{{{{{NL{",
"{{{{{{{HB{{{{{{{{{{{{nJ{",
"{{{{{{{FC{{{{{{{{{{{{mF{",
"{{{{{{{{Z{{{{{{{{{{{{V{{",
"{{{{{{{{V{{{{{{{{{{{kC{{",
"{{{{{{{{an{{{{{{{{{{M{{{",
"{{{{{{=:ehc{{{{{{{gbn{{{",
"{{{{{:5wi0yzclfdjxv{{{{{",
"{{{{;4qst*{{{cccc{{{{{{{",
"{{{*29pr1@{{{{{{{{{{{{{{",
"{{$<6u0,%{{{{{{{{{{{{{{{",
"{o-3e7;#{{{{{{{{{{{{{{{{",
"{o:83&+{{{{{{{{{{{{{{{{{",
"{o>:O.{{{{{{{{{{{{{{{{{{",
"{{X  {{{{{{{{{{{{{{{{{{{",
"{{{{{{{{{{{{{{{{{{{{{{{{"
};
