/* XPM */
static char *UPWARDS_BLACK_ARROW[] = {
/* columns rows colors chars-per-pixel */
"24 24 143 2 ",
"   c #48627A",
".  c #49637B",
"X  c #4C6781",
"o  c #4D6882",
"O  c #4E6983",
"+  c #4E6A83",
"@  c #506D87",
"#  c #516E8A",
"$  c #53708C",
"%  c #53718C",
"&  c #53718D",
"*  c #54728F",
"=  c #547292",
"-  c #567492",
";  c #577695",
":  c #597898",
">  c #5A7A98",
",  c #5B7B98",
"<  c #59799A",
"1  c #5B7A9A",
"2  c #5C7A99",
"3  c #5C7D9B",
"4  c #5C7C9D",
"5  c #5C7D9D",
"6  c #5D7E9D",
"7  c #5E7F9D",
"8  c #5E7E9E",
"9  c #5E7F9E",
"0  c #617F9D",
"q  c #617F9E",
"w  c #5E7FA0",
"e  c #5F80A0",
"r  c #5F82A1",
"t  c #5F80A2",
"y  c #5F80A3",
"u  c #6081A0",
"i  c #6283A3",
"p  c #6184A2",
"a  c #6284A2",
"s  c #6284A3",
"d  c #6183A4",
"f  c #6182A5",
"g  c #6385A5",
"h  c #6386A5",
"j  c #6285A6",
"k  c #6587A7",
"l  c #6587A8",
"z  c #6588A8",
"x  c #6488A9",
"c  c #668AAA",
"v  c #678AAA",
"b  c #678BAB",
"n  c #668BAC",
"m  c #668DAF",
"M  c #6A89A8",
"N  c #6A8BAB",
"B  c #698DAE",
"V  c #708EAA",
"C  c #698FB0",
"Z  c #6A8FB0",
"A  c #6A8FB1",
"S  c #6A90B0",
"D  c #6A90B1",
"F  c #6C91B4",
"G  c #6D92B4",
"H  c #6F94B5",
"J  c #6F94B7",
"K  c #7498B9",
"L  c #789BBB",
"P  c #7A9CBB",
"I  c #7A9CBC",
"U  c #7F9FBD",
"Y  c #7FA0BD",
"T  c #7FA0C0",
"R  c #87A0B7",
"E  c #82A3C2",
"W  c #82A4C3",
"Q  c #85A5C3",
"!  c #86A5C3",
"~  c #82A4C4",
"^  c #86A6C5",
"/  c #89A7C4",
"(  c #8AA9C8",
")  c #8BAAC8",
"_  c #8DABC8",
"`  c #8CABC9",
"'  c #8BACCA",
"]  c #8FAECB",
"[  c #94ADC6",
"{  c #90AECB",
"}  c #9BB1C5",
"|  c #92B0CC",
" . c #93B0CD",
".. c #93B2CF",
"X. c #97B5D0",
"o. c #97B6D2",
"O. c #98B5D1",
"+. c #98B6D2",
"@. c #9DB9D4",
"#. c #9DBAD4",
"$. c #9CBAD6",
"%. c #A0B5C9",
"&. c #A0B6CA",
"*. c #A1B8CC",
"=. c #A2B9CE",
"-. c #A3BBCF",
";. c #A2BBD2",
":. c #A1BDD7",
">. c #A7BFD5",
",. c #A0BDD9",
"<. c #A3BED8",
"1. c #A4BFD9",
"2. c #AFC3D6",
"3. c #A6C1D9",
"4. c #A4C0DA",
"5. c #A5C0DA",
"6. c #B3C7D8",
"7. c #B6C8DA",
"8. c #B6C9DA",
"9. c #B0C8DE",
"0. c #B1C8DE",
"q. c #B1C8DF",
"w. c #B4CAE0",
"e. c #B5CCE1",
"r. c #BDD1E4",
"t. c #C2D5E7",
"y. c #C4D5E4",
"u. c #D4E1EC",
"i. c #E3ECF3",
"p. c #E5ECF2",
"a. c #ECF0F5",
"s. c #EEF4F8",
"d. c #F3F6F8",
"f. c #F3F6F9",
"g. c #F5F7F9",
"h. c #F6F9FC",
"j. c #F7F9FC",
"k. c #FCFDFE",
"l. c #FDFDFE",
"z. c #FDFEFE",
"x. c #FEFEFE",
"c. c #FFFFFF",
"v. c None",
/* pixels */
"v.v.v.v.v.v.v.v.v.v.v.v.v.v.v.v.v.v.v.v.v.v.v.v.",
"v.v.v.v.= 2 0 q q q q q q q q q q 0 2 = v.v.v.v.",
"v.v.v.M [ 2.7.8.8.8.8.8.8.8.8.8.8.7.2.[ M v.v.v.",
"v.v.N >.r.w.q.9.9.9.9.9.9.9.9.9.9.q.w.r.>.N v.v.",
"v.< / 0.5.4.5.5.5.5.1.,.,.1.5.5.5.5.4.5.0./ < v.",
"v.t { <.:.:.:.:.:.:.$.t.t.$.:.:.:.:.:.:.<.{ t v.",
"v.f ) #.@.@.@.@.@.+.e.h.j.e.o.@.@.@.@.@.#.) f v.",
"v.y ^ O.X.X.X.O...3.s.c.c.s.3...O.X.X.X.O.^ y v.",
"v.w E  .| | | ] o.i.c.c.c.c.i.o.] | | |  .E w v.",
"v.4 I ` _ _ ( ' u.c.c.c.c.c.c.u.' ( _ _ ` I 4 v.",
"v.1 H T Q ! W y.x.c.c.c.c.c.c.x.y.~ ! Q T H 1 v.",
"v.: A J K L ;.p.a.f.c.c.c.c.f.a.p.;.L K J A : v.",
"v.; B F F G P Y U 6.z.c.c.z.6.U Y P G F F B ; v.",
"v.- b D S Z C C m -.l.c.c.l.-.m C C Z S D b - v.",
"v.* z B B B B B n =.l.c.c.l.=.n B B B B B z * v.",
"v.$ h v c c c c x *.k.c.c.k.*.x c c c c v h $ v.",
"v.# i l l k k k j &.k.c.c.k.&.j k k k l l i # v.",
"v.@ u g g g g g d %.k.c.c.k.%.d g g g g g u @ v.",
"v.O 7 s a p p a r } d.g.g.d.} r a p p a s 7 + v.",
"v.. , u u u u u e V R R R R V e u u u u u , . v.",
"v.v.% 6 9 9 9 9 9 8 5 5 5 5 8 9 9 9 9 9 6 % v.v.",
"v.v.v.& > 3 3 3 3 3 3 3 3 3 3 3 3 3 3 > & v.v.v.",
"v.v.v.v.  X o o o o o o o o o o o o X   v.v.v.v.",
"v.v.v.v.v.v.v.v.v.v.v.v.v.v.v.v.v.v.v.v.v.v.v.v."
};
