<?xml version="1.0" encoding="UTF-8" standalone="no"?>
<!-- Created with Inkscape (http://www.inkscape.org/) -->
<svg
   xmlns:dc="http://purl.org/dc/elements/1.1/"
   xmlns:cc="http://creativecommons.org/ns#"
   xmlns:rdf="http://www.w3.org/1999/02/22-rdf-syntax-ns#"
   xmlns:svg="http://www.w3.org/2000/svg"
   xmlns="http://www.w3.org/2000/svg"
   xmlns:xlink="http://www.w3.org/1999/xlink"
   xmlns:sodipodi="http://sodipodi.sourceforge.net/DTD/sodipodi-0.dtd"
   xmlns:inkscape="http://www.inkscape.org/namespaces/inkscape"
   width="48"
   height="48"
   id="svg2450"
   sodipodi:version="0.32"
   inkscape:version="0.46"
   version="1.0"
   sodipodi:docname="py-mode.svg"
   inkscape:output_extension="org.inkscape.output.svg.inkscape">
  <defs
     id="defs2452">
    <linearGradient
       id="linearGradient3179">
      <stop
         style="stop-color:#ea3c31;stop-opacity:1;"
         offset="0"
         id="stop3181" />
      <stop
         style="stop-color:#3f3e3e;stop-opacity:0.68589741;"
         offset="1"
         id="stop3183" />
    </linearGradient>
    <linearGradient
       id="linearGradient3251">
      <stop
         style="stop-color:#ea3c31;stop-opacity:1;"
         offset="0"
         id="stop3253" />
      <stop
         style="stop-color:#360300;stop-opacity:0.94871795;"
         offset="1"
         id="stop3255" />
    </linearGradient>
    <radialGradient
       inkscape:collect="always"
       xlink:href="#linearGradient3327"
       id="radialGradient14020"
       gradientUnits="userSpaceOnUse"
       gradientTransform="matrix(1.1930192,-0.4888959,0.775226,1.8917311,-71.56168,24.578712)"
       cx="151.91629"
       cy="54.485931"
       fx="151.91629"
       fy="54.485931"
       r="29.719767" />
    <radialGradient
       inkscape:collect="always"
       xlink:href="#linearGradient3327"
       id="radialGradient14018"
       gradientUnits="userSpaceOnUse"
       gradientTransform="matrix(1.1930192,-0.4888959,0.775226,1.8917311,-71.56168,24.578712)"
       cx="151.91629"
       cy="54.485931"
       fx="151.91629"
       fy="54.485931"
       r="29.719767" />
    <linearGradient
       id="linearGradient3327">
      <stop
         style="stop-color:#ffbfbf;stop-opacity:1;"
         offset="0"
         id="stop3329" />
      <stop
         style="stop-color:#fb262e;stop-opacity:0.68468469;"
         offset="1"
         id="stop3331" />
    </linearGradient>
    <radialGradient
       inkscape:collect="always"
       xlink:href="#linearGradient3327"
       id="radialGradient14016"
       cx="151.91629"
       cy="54.485931"
       fx="151.91629"
       fy="54.485931"
       r="29.719767"
       gradientTransform="matrix(1.1930192,-0.4888959,0.775226,1.8917311,-71.56168,24.578712)"
       gradientUnits="userSpaceOnUse" />
    <inkscape:perspective
       sodipodi:type="inkscape:persp3d"
       inkscape:vp_x="0 : 526.18109 : 1"
       inkscape:vp_y="0 : 1000 : 0"
       inkscape:vp_z="744.09448 : 526.18109 : 1"
       inkscape:persp3d-origin="372.04724 : 350.78739 : 1"
       id="perspective2458" />
    <linearGradient
       inkscape:collect="always"
       xlink:href="#linearGradient3251"
       id="linearGradient3257"
       x1="156.84496"
       y1="47.112759"
       x2="173.81735"
       y2="19.123127"
       gradientUnits="userSpaceOnUse" />
    <radialGradient
       inkscape:collect="always"
       xlink:href="#linearGradient3327"
       id="radialGradient3291"
       gradientUnits="userSpaceOnUse"
       gradientTransform="matrix(1.1930192,-0.4888959,0.775226,1.8917311,-71.56168,24.578712)"
       cx="151.91629"
       cy="54.485931"
       fx="151.91629"
       fy="54.485931"
       r="29.719767" />
    <radialGradient
       inkscape:collect="always"
       xlink:href="#linearGradient3327"
       id="radialGradient3293"
       gradientUnits="userSpaceOnUse"
       gradientTransform="matrix(1.1930192,-0.4888959,0.775226,1.8917311,-71.56168,24.578712)"
       cx="151.91629"
       cy="54.485931"
       fx="151.91629"
       fy="54.485931"
       r="29.719767" />
    <radialGradient
       inkscape:collect="always"
       xlink:href="#linearGradient3327"
       id="radialGradient3295"
       gradientUnits="userSpaceOnUse"
       gradientTransform="matrix(1.1930192,-0.4888959,0.775226,1.8917311,-71.56168,24.578712)"
       cx="151.91629"
       cy="54.485931"
       fx="151.91629"
       fy="54.485931"
       r="29.719767" />
    <linearGradient
       inkscape:collect="always"
       xlink:href="#linearGradient3179"
       id="linearGradient3185"
       x1="160.13104"
       y1="56.764355"
       x2="178.80287"
       y2="71.886116"
       gradientUnits="userSpaceOnUse" />
  </defs>
  <sodipodi:namedview
     id="base"
     pagecolor="#ffffff"
     bordercolor="#666666"
     borderopacity="1.0"
     gridtolerance="10000"
     guidetolerance="10"
     objecttolerance="10"
     inkscape:pageopacity="0.0"
     inkscape:pageshadow="2"
     inkscape:zoom="0.98994949"
     inkscape:cx="-155.57189"
     inkscape:cy="66.137144"
     inkscape:document-units="px"
     inkscape:current-layer="layer1"
     showgrid="false"
     inkscape:window-width="684"
     inkscape:window-height="737"
     inkscape:window-x="-4"
     inkscape:window-y="0" />
  <metadata
     id="metadata2455">
    <rdf:RDF>
      <cc:Work
         rdf:about="">
        <dc:format>image/svg+xml</dc:format>
        <dc:type
           rdf:resource="http://purl.org/dc/dcmitype/StillImage" />
      </cc:Work>
    </rdf:RDF>
  </metadata>
  <g
     inkscape:label="Layer 1"
     inkscape:groupmode="layer"
     id="layer1">
    <g
       id="g3275"
       transform="matrix(0.5952154,0,0,0.5077829,-67.495181,-4.2278656)"
       style="fill:#ffffff;fill-opacity:1;fill-rule:nonzero;stroke:none;stroke-width:3.01464081;stroke-linecap:round;stroke-linejoin:round;stroke-miterlimit:1.29999995;stroke-dasharray:none;stroke-opacity:0.70517925">
      <path
         sodipodi:nodetypes="cssscccccccscsccccscc"
         id="path3277"
         d="M 180.59567,37.23742 C 180.5956,41.989195 179.40063,46.375381 177.01074,50.395993 C 174.62073,54.416724 171.43414,57.889122 167.45095,60.813195 C 163.46765,63.737369 160.67938,66.661493 159.08613,69.585578 C 157.49279,72.509743 156.69614,74.520078 156.69618,75.616589 L 156.69618,79.454507 L 145.94141,79.454507 L 145.94141,73.971768 C 145.94138,70.682165 146.73803,67.575283 148.33136,64.651113 C 150.32295,61.361519 153.50954,57.889122 157.89115,54.233909 C 161.07771,51.675358 163.26849,49.116748 164.46351,46.558076 C 165.65844,43.634016 166.25592,40.892649 166.25597,38.333968 C 166.25592,33.582339 165.06095,30.10994 162.67105,27.916764 C 160.28106,25.358238 156.8953,24.078934 152.51377,24.078847 C 148.13217,24.078934 144.34808,25.723755 141.16151,29.013312 C 138.37322,31.937519 136.97908,36.871978 136.97911,43.816706 L 123.2369,43.816706 C 123.63522,33.582339 126.62265,26.089269 132.19921,21.337478 C 137.77573,16.22035 144.54725,13.661741 152.51377,13.661645 C 161.27687,13.661741 168.04838,15.854835 172.82833,20.240932 C 178.00649,24.627209 180.5956,30.292698 180.59567,37.23742"
         style="font-size:92.15419769px;font-style:normal;font-variant:normal;font-weight:normal;font-stretch:normal;text-align:start;line-height:125%;writing-mode:lr-tb;text-anchor:start;fill:#ffffff;fill-opacity:1;fill-rule:nonzero;stroke:none;stroke-width:3.01464081;stroke-linecap:round;stroke-linejoin:round;stroke-miterlimit:1.29999995;stroke-dasharray:none;stroke-opacity:0.70517925;font-family:Arial Black" />
      <path
         sodipodi:nodetypes="ccscscssc"
         id="path3279"
         d="M 151.36413,86.066826 C 153.30315,86.066836 154.93277,86.747564 156.253,88.10901 C 157.61443,89.42922 158.29515,91.058844 158.29519,92.997882 C 158.29515,94.895684 157.61443,96.525294 156.253,97.886754 C 154.89151,99.206944 153.26189,99.867044 151.36413,99.867064 C 149.46632,99.867044 147.8367,99.206944 146.47526,97.886754 C 145.15504,96.525294 144.49494,94.895684 144.49496,92.997882 C 144.49494,91.058844 145.15504,89.42922 146.47526,88.10901 C 147.8367,86.747564 149.46632,86.066836 151.36413,86.066826"
         style="font-size:92.15419769px;font-style:normal;font-variant:normal;font-weight:normal;font-stretch:normal;text-align:start;line-height:125%;writing-mode:lr-tb;text-anchor:start;fill:#ffffff;fill-opacity:1;fill-rule:nonzero;stroke:none;stroke-width:3.01464081;stroke-linecap:round;stroke-linejoin:round;stroke-miterlimit:1.29999995;stroke-dasharray:none;stroke-opacity:0.70517925;font-family:Arial Black" />
    </g>
    <g
       id="g2354"
       transform="matrix(0.5952154,0,0,0.5077829,-67.494391,-4.1868721)"
       style="fill:url(#radialGradient3295);fill-opacity:1;fill-rule:nonzero;stroke:url(#linearGradient3185);stroke-width:3.01464080999999995;stroke-linecap:round;stroke-linejoin:round;stroke-miterlimit:1.29999994999999990;stroke-dasharray:none;stroke-opacity:0.70517925000000004">
      <path
         sodipodi:nodetypes="cssscccccccscsccccscc"
         id="text2210"
         d="M 180.59567,37.23742 C 180.5956,41.989195 179.40063,46.375381 177.01074,50.395993 C 174.62073,54.416724 171.43414,57.889122 167.45095,60.813195 C 163.46765,63.737369 160.67938,66.661493 159.08613,69.585578 C 157.49279,72.509743 156.69614,74.520078 156.69618,75.616589 L 156.69618,79.454507 L 145.94141,79.454507 L 145.94141,73.971768 C 145.94138,70.682165 146.73803,67.575283 148.33136,64.651113 C 150.32295,61.361519 153.50954,57.889122 157.89115,54.233909 C 161.07771,51.675358 163.26849,49.116748 164.46351,46.558076 C 165.65844,43.634016 166.25592,40.892649 166.25597,38.333968 C 166.25592,33.582339 165.06095,30.10994 162.67105,27.916764 C 160.28106,25.358238 156.8953,24.078934 152.51377,24.078847 C 148.13217,24.078934 144.34808,25.723755 141.16151,29.013312 C 138.37322,31.937519 136.97908,36.871978 136.97911,43.816706 L 123.2369,43.816706 C 123.63522,33.582339 126.62265,26.089269 132.19921,21.337478 C 137.77573,16.22035 144.54725,13.661741 152.51377,13.661645 C 161.27687,13.661741 168.04838,15.854835 172.82833,20.240932 C 178.00649,24.627209 180.5956,30.292698 180.59567,37.23742"
         style="font-size:92.15419769000000372px;font-style:normal;font-variant:normal;font-weight:normal;font-stretch:normal;text-align:start;line-height:125%;writing-mode:lr-tb;text-anchor:start;fill:url(#radialGradient3291);fill-opacity:1;fill-rule:nonzero;stroke:url(#linearGradient3185);stroke-width:3.01464080999999995;stroke-linecap:round;stroke-linejoin:round;stroke-miterlimit:1.29999994999999990;stroke-dasharray:none;stroke-opacity:0.70517925000000004;font-family:Arial Black" />
      <path
         sodipodi:nodetypes="ccscscssc"
         id="text2340"
         d="M 151.36413,86.066826 C 153.30315,86.066836 154.93277,86.747564 156.253,88.10901 C 157.61443,89.42922 158.29515,91.058844 158.29519,92.997882 C 158.29515,94.895684 157.61443,96.525294 156.253,97.886754 C 154.89151,99.206944 153.26189,99.867044 151.36413,99.867064 C 149.46632,99.867044 147.8367,99.206944 146.47526,97.886754 C 145.15504,96.525294 144.49494,94.895684 144.49496,92.997882 C 144.49494,91.058844 145.15504,89.42922 146.47526,88.10901 C 147.8367,86.747564 149.46632,86.066836 151.36413,86.066826"
         style="font-size:92.15419769000000372px;font-style:normal;font-variant:normal;font-weight:normal;font-stretch:normal;text-align:start;line-height:125%;writing-mode:lr-tb;text-anchor:start;fill:url(#radialGradient3293);fill-opacity:1;fill-rule:nonzero;stroke:url(#linearGradient3185);stroke-width:3.01464080999999995;stroke-linecap:round;stroke-linejoin:round;stroke-miterlimit:1.29999994999999990;stroke-dasharray:none;stroke-opacity:0.70517925000000004;font-family:Arial Black" />
    </g>
  </g>
</svg>
