<?xml version="1.0" encoding="UTF-8" standalone="no"?>
<!-- Created with Inkscape (http://www.inkscape.org/) -->
<svg
   xmlns:dc="http://purl.org/dc/elements/1.1/"
   xmlns:cc="http://creativecommons.org/ns#"
   xmlns:rdf="http://www.w3.org/1999/02/22-rdf-syntax-ns#"
   xmlns:svg="http://www.w3.org/2000/svg"
   xmlns="http://www.w3.org/2000/svg"
   xmlns:xlink="http://www.w3.org/1999/xlink"
   xmlns:sodipodi="http://sodipodi.sourceforge.net/DTD/sodipodi-0.dtd"
   xmlns:inkscape="http://www.inkscape.org/namespaces/inkscape"
   width="48"
   height="48"
   id="svg2448"
   sodipodi:version="0.32"
   inkscape:version="0.46"
   version="1.0"
   sodipodi:docname="scb-mode.svg"
   inkscape:output_extension="org.inkscape.output.svg.inkscape">
  <defs
     id="defs2450">
    <linearGradient
       inkscape:collect="always"
       xlink:href="#linearGradient3165"
       id="linearGradient2442"
       gradientUnits="userSpaceOnUse"
       gradientTransform="matrix(0.4392113,0,0,0.4765171,5.7696341,-1.1905446)"
       x1="3.9687493"
       y1="20.632252"
       x2="43.40625"
       y2="20.632252" />
    <linearGradient
       id="linearGradient3165">
      <stop
         style="stop-color:#3e9ade;stop-opacity:1;"
         offset="0"
         id="stop3167" />
      <stop
         style="stop-color:#ffffff;stop-opacity:1;"
         offset="1"
         id="stop3169" />
    </linearGradient>
    <linearGradient
       inkscape:collect="always"
       xlink:href="#linearGradient3165"
       id="linearGradient2437"
       gradientUnits="userSpaceOnUse"
       gradientTransform="matrix(0.6879276,0,0,0.771848,14.988778,8.1039028)"
       x1="3.9687493"
       y1="20.632252"
       x2="43.40625"
       y2="20.632252" />
    <inkscape:perspective
       sodipodi:type="inkscape:persp3d"
       inkscape:vp_x="0 : 526.18109 : 1"
       inkscape:vp_y="0 : 1000 : 0"
       inkscape:vp_z="744.09448 : 526.18109 : 1"
       inkscape:persp3d-origin="372.04724 : 350.78739 : 1"
       id="perspective2456" />
  </defs>
  <sodipodi:namedview
     id="base"
     pagecolor="#ffffff"
     bordercolor="#666666"
     borderopacity="1.0"
     gridtolerance="10000"
     guidetolerance="10"
     objecttolerance="10"
     inkscape:pageopacity="0.0"
     inkscape:pageshadow="2"
     inkscape:zoom="7.9195959"
     inkscape:cx="27.007017"
     inkscape:cy="26.59462"
     inkscape:document-units="px"
     inkscape:current-layer="layer1"
     showgrid="false"
     inkscape:window-width="775"
     inkscape:window-height="753"
     inkscape:window-x="91"
     inkscape:window-y="0" />
  <metadata
     id="metadata2453">
    <rdf:RDF>
      <cc:Work
         rdf:about="">
        <dc:format>image/svg+xml</dc:format>
        <dc:type
           rdf:resource="http://purl.org/dc/dcmitype/StillImage" />
      </cc:Work>
    </rdf:RDF>
  </metadata>
  <g
     inkscape:label="Layer 1"
     inkscape:groupmode="layer"
     id="layer1">
    <path
       style="fill:#6b6b6b;fill-opacity:0.22110554;stroke:none;stroke-width:0.37799999;stroke-linejoin:round;stroke-miterlimit:4;stroke-dashoffset:0;stroke-opacity:1"
       d="M 43.24788,44.21383 C 43.24788,46.12495 34.62483,47.676 24,47.676 C 13.37517,47.676 4.7521198,46.12495 4.7521198,44.21383 C 4.7521198,42.30272 13.37517,40.75167 24,40.75167 C 34.62483,40.75167 43.24788,42.30272 43.24788,44.21383 z"
       id="path2390" />
    <text
       xml:space="preserve"
       style="font-size:12px;font-style:normal;font-weight:bold;fill:#000000;fill-opacity:1;stroke:none;stroke-width:1px;stroke-linecap:butt;stroke-linejoin:miter;stroke-opacity:1;font-family:Bitstream Vera Sans"
       x="14.428495"
       y="15.713848"
       id="text2387"><tspan
         sodipodi:role="line"
         id="tspan2389"
         x="14.428495"
         y="15.713848" /></text>
    <text
       xml:space="preserve"
       style="font-size:12px;font-style:normal;font-weight:normal;fill:#000000;fill-opacity:1;stroke:none;stroke-width:1px;stroke-linecap:butt;stroke-linejoin:miter;stroke-opacity:1;font-family:Bitstream Vera Sans"
       x="16.999937"
       y="16.713848"
       id="text2396"><tspan
         sodipodi:role="line"
         id="tspan2398"
         x="16.999937"
         y="16.713848"
         style="font-style:normal;font-weight:bold" /></text>
    <path
       style="font-size:35.11172104px;font-style:normal;font-variant:normal;font-weight:normal;font-stretch:normal;fill:#000066;fill-opacity:1;stroke:#000066;stroke-width:0.41914615;stroke-linecap:butt;stroke-linejoin:miter;stroke-miterlimit:4;stroke-opacity:1;font-family:'微软雅黑';-inkscape-font-specification:'微软雅黑'"
       d="M 20.496005,18.291233 L 31.109895,18.291233 C 31.235285,16.083253 31.289025,13.530893 31.271125,10.634133 L 35.355455,10.634133 C 35.301705,13.642303 35.230045,16.194673 35.140495,18.291233 L 46.238065,18.291233 L 46.238065,22.484413 L 35.449505,22.484413 C 36.990075,29.250223 40.711645,33.797883 46.614255,36.127423 C 45.342345,37.768233 44.321265,39.165953 43.550995,40.320603 C 38.669485,37.727723 35.270355,33.549743 33.353595,27.786653 C 31.866745,33.063573 28.431785,37.312453 23.048715,40.533303 C 22.332155,39.500193 21.320035,38.203753 20.012335,36.643983 C 26.532925,33.301593 30.102245,28.581743 30.720275,22.484413 L 20.496005,22.484413 L 20.496005,18.291233"
       id="text3181" />
    <path
       style="font-size:34.97667313px;font-style:normal;font-variant:normal;font-weight:normal;font-stretch:normal;fill:url(#linearGradient2437);fill-opacity:1;stroke:#0066f0;stroke-width:0.41753405;stroke-linecap:butt;stroke-linejoin:miter;stroke-miterlimit:4;stroke-opacity:1;font-family:'微软雅黑';-inkscape-font-specification:'微软雅黑'"
       d="M 18.654148,16.913393 L 29.268648,16.913393 C 29.394048,14.722493 29.447788,12.189873 29.429888,9.3155228 L 33.514458,9.3155228 C 33.460698,12.300423 33.389038,14.833043 33.299478,16.913393 L 44.397688,16.913393 L 44.397688,21.074143 L 33.608508,21.074143 C 35.149158,27.787613 38.870958,32.300113 44.773898,34.611633 C 43.501918,36.239743 42.480778,37.626663 41.710468,38.772373 C 36.828668,36.199543 33.429348,32.053883 31.512478,26.335373 C 30.025538,31.571473 26.590378,35.787493 21.206998,38.983423 C 20.490408,37.958313 19.478218,36.671903 18.170448,35.124183 C 24.691418,31.807653 28.260938,27.124313 28.879008,21.074143 L 18.654148,21.074143 L 18.654148,16.913393"
       id="text2399" />
    <text
       xml:space="preserve"
       style="font-size:12px;font-style:normal;font-weight:bold;fill:#000000;fill-opacity:1;stroke:none;stroke-width:1px;stroke-linecap:butt;stroke-linejoin:miter;stroke-opacity:1;font-family:Bitstream Vera Sans"
       x="-65.433655"
       y="18.681866"
       id="text2495"><tspan
         sodipodi:role="line"
         id="tspan2497"
         x="-65.433655"
         y="18.681866" /></text>
    <text
       xml:space="preserve"
       style="font-size:12px;font-style:normal;font-weight:normal;fill:#000000;fill-opacity:1;stroke:none;stroke-width:1px;stroke-linecap:butt;stroke-linejoin:miter;stroke-opacity:1;font-family:Bitstream Vera Sans"
       x="-62.862217"
       y="19.681866"
       id="text2499"><tspan
         sodipodi:role="line"
         id="tspan2501"
         x="-62.862217"
         y="19.681866"
         style="font-style:normal;font-weight:bold" /></text>
    <path
       style="font-size:48.18532562px;font-style:normal;font-variant:normal;font-weight:normal;font-stretch:normal;fill:#000066;fill-opacity:1;stroke:#000066;stroke-width:0.35374984;stroke-linecap:butt;stroke-linejoin:miter;stroke-miterlimit:4;stroke-opacity:1;font-family:'微软雅黑';-inkscape-font-specification:'微软雅黑'"
       d="M 8.1321827,13.083144 L 17.841363,13.083144 L 17.841363,22.514504 L 9.7465327,22.514504 L 9.7465327,23.523204 L 8.1321827,23.523204 L 8.1321827,13.083144 M 9.6312227,10.788344 L 9.6312227,9.199644 L 22.845863,9.199644 L 22.845863,22.993634 C 22.845833,25.162334 21.861853,26.246694 19.893903,26.246694 C 18.986773,26.246694 18.056593,26.221474 17.103373,26.171044 C 17.041863,25.683504 16.926553,25.044654 16.757443,24.254514 C 17.864413,24.355384 18.871463,24.405814 19.778593,24.405814 C 20.685683,24.405814 21.139233,23.909874 21.139253,22.917984 L 21.139253,10.788344 L 9.6312227,10.788344 M 5.9643427,1.457854 L 7.9015627,1.457854 C 7.5325627,2.281644 7.1405027,3.071794 6.7253927,3.828304 L 13.275053,3.828304 L 13.275053,5.417004 L 5.7567827,5.417004 C 4.8342827,6.829204 3.8041727,8.098484 2.6664427,9.224854 C 2.3589427,8.821394 1.9592027,8.367474 1.4672127,7.863114 C 3.3583127,6.047464 4.8573527,3.912384 5.9643427,1.457854 M 15.973333,1.457854 L 17.910553,1.457854 C 17.556913,2.281644 17.172543,3.071794 16.757443,3.828304 L 24.114283,3.828304 L 24.114283,5.417004 L 15.904143,5.417004 C 15.212263,6.593844 14.474273,7.711814 13.690173,8.770944 C 13.275043,8.451534 12.775363,8.098484 12.191133,7.711804 C 13.651723,5.912974 14.912453,3.828324 15.973333,1.457854 M 3.2430027,11.670954 L 4.9496027,11.670954 L 4.9496027,26.297134 L 3.2430027,26.297134 L 3.2430027,11.670954 M 9.7465327,21.001444 L 16.227013,21.001444 L 16.227013,18.504914 L 9.7465327,18.504914 L 9.7465327,21.001444 M 16.227013,14.596194 L 9.7465327,14.596194 L 9.7465327,17.042294 L 16.227013,17.042294 L 16.227013,14.596194 M 4.5344827,8.871814 L 5.6645327,7.787454 C 6.6177627,8.695304 7.5018127,9.636754 8.3166827,10.611824 L 7.0252027,11.897914 C 6.3025727,10.906034 5.4723427,9.897334 4.5344827,8.871814 M 18.948353,9.073554 C 18.656213,8.569214 18.033533,7.711814 17.080313,6.501364 L 18.279543,5.568314 C 19.109763,6.442534 19.786253,7.232684 20.309023,7.938764 L 18.948353,9.073554 M 9.1469227,9.048334 C 8.5934227,8.207764 7.9861127,7.375584 7.3250027,6.551794 L 8.5242427,5.593534 C 9.2161027,6.299634 9.8772127,7.072974 10.507593,7.913544 L 9.1469227,9.048334"
       id="path2503" />
    <path
       style="font-size:48px;font-style:normal;font-variant:normal;font-weight:normal;font-stretch:normal;fill:url(#linearGradient2442);fill-opacity:1;stroke:#0066f0;stroke-width:0.35238925;stroke-linecap:butt;stroke-linejoin:miter;stroke-miterlimit:4;stroke-opacity:1;font-family:'微软雅黑';-inkscape-font-specification:'微软雅黑'"
       d="M 7.1256641,12.100105 L 16.835404,12.100105 L 16.835404,21.458515 L 8.7401041,21.458515 L 8.7401041,22.459415 L 7.1256641,22.459415 L 7.1256641,12.100105 M 8.6247941,9.823055 L 8.6247941,8.246645 L 21.840184,8.246645 L 21.840184,21.933945 C 21.840164,24.085875 20.856124,25.161845 18.888054,25.161845 C 17.980874,25.161845 17.050644,25.136825 16.097374,25.086775 C 16.035854,24.603005 15.920534,23.969105 15.751414,23.185065 C 16.858444,23.285155 17.865554,23.335205 18.772734,23.335205 C 19.679884,23.335205 20.133464,22.843095 20.133484,21.858875 L 20.133484,9.823055 L 8.6247941,9.823055 M 4.9576941,0.56473538 L 6.8950241,0.56473538 C 6.5260041,1.3821554 6.1339241,2.1661954 5.7187841,2.9168554 L 12.268824,2.9168554 L 12.268824,4.4932654 L 4.7501141,4.4932654 C 3.8275741,5.8945454 2.7974041,7.1540054 1.6596041,8.271665 C 1.3520941,7.8713154 0.95232417,7.4209154 0.46030419,6.9204554 C 2.3515141,5.1188454 3.8506341,3.0002754 4.9576941,0.56473538 M 14.967254,0.56473538 L 16.904594,0.56473538 C 16.550934,1.3821554 16.166544,2.1661954 15.751414,2.9168554 L 23.108674,2.9168554 L 23.108674,4.4932654 L 14.898064,4.4932654 C 14.206144,5.6610054 13.468114,6.7703254 12.683964,7.8212654 C 12.268814,7.5043254 11.769104,7.1540054 11.184844,6.7703154 C 12.645514,4.9853954 13.906324,2.9168654 14.967254,0.56473538 M 2.2361941,10.698845 L 3.9428941,10.698845 L 3.9428941,25.211895 L 2.2361941,25.211895 L 2.2361941,10.698845 M 8.7401041,19.957165 L 15.220954,19.957165 L 15.220954,17.479945 L 8.7401041,17.479945 L 8.7401041,19.957165 M 15.220954,13.601455 L 8.7401041,13.601455 L 8.7401041,16.028635 L 15.220954,16.028635 L 15.220954,13.601455 M 3.5277541,7.9213554 L 4.6578641,6.8453854 C 5.6111541,7.7462054 6.4952541,8.680375 7.3101641,9.647905 L 6.0186141,10.924045 C 5.2959541,9.939845 4.4656641,8.938945 3.5277541,7.9213554 M 17.942454,8.121525 C 17.650294,7.6210954 17.027584,6.7703254 16.074304,5.5692354 L 17.273604,4.6434054 C 18.103874,5.5108654 18.780404,6.2949054 19.303194,6.9955154 L 17.942454,8.121525 M 8.1404541,8.0965054 C 7.5869241,7.2624354 6.9795841,6.4366954 6.3184341,5.6192854 L 7.5177441,4.6684254 C 8.2096341,5.3690754 8.8707941,6.1364254 9.5012041,6.9704954 L 8.1404541,8.0965054"
       id="path2505" />
  </g>
</svg>
