<?xml version="1.0" encoding="UTF-8" standalone="no"?>
<!-- Created with Inkscape (http://www.inkscape.org/) -->
<svg
   xmlns:dc="http://purl.org/dc/elements/1.1/"
   xmlns:cc="http://creativecommons.org/ns#"
   xmlns:rdf="http://www.w3.org/1999/02/22-rdf-syntax-ns#"
   xmlns:svg="http://www.w3.org/2000/svg"
   xmlns="http://www.w3.org/2000/svg"
   xmlns:xlink="http://www.w3.org/1999/xlink"
   xmlns:sodipodi="http://sodipodi.sourceforge.net/DTD/sodipodi-0.dtd"
   xmlns:inkscape="http://www.inkscape.org/namespaces/inkscape"
   width="48"
   height="48"
   id="svg2402"
   sodipodi:version="0.32"
   inkscape:version="0.46"
   version="1.0"
   sodipodi:docname="sc-mode.svg"
   inkscape:output_extension="org.inkscape.output.svg.inkscape">
  <defs
     id="defs2404">
    <linearGradient
       id="linearGradient3165">
      <stop
         style="stop-color:#3e9ade;stop-opacity:1;"
         offset="0"
         id="stop3167" />
      <stop
         style="stop-color:#ffffff;stop-opacity:1;"
         offset="1"
         id="stop3169" />
    </linearGradient>
    <linearGradient
       inkscape:collect="always"
       xlink:href="#linearGradient3165"
       id="linearGradient3192"
       gradientUnits="userSpaceOnUse"
       gradientTransform="translate(-0.5759255,-0.8104784)"
       x1="3.9687493"
       y1="20.632252"
       x2="43.40625"
       y2="20.632252" />
    <inkscape:perspective
       sodipodi:type="inkscape:persp3d"
       inkscape:vp_x="0 : 526.18109 : 1"
       inkscape:vp_y="0 : 1000 : 0"
       inkscape:vp_z="744.09448 : 526.18109 : 1"
       inkscape:persp3d-origin="372.04724 : 350.78739 : 1"
       id="perspective2410" />
  </defs>
  <sodipodi:namedview
     id="base"
     pagecolor="#ffffff"
     bordercolor="#666666"
     borderopacity="1.0"
     gridtolerance="10000"
     guidetolerance="10"
     objecttolerance="10"
     inkscape:pageopacity="0.0"
     inkscape:pageshadow="2"
     inkscape:zoom="1.8457837"
     inkscape:cx="-19.18533"
     inkscape:cy="9.7099129"
     inkscape:document-units="px"
     inkscape:current-layer="layer1"
     showgrid="false"
     inkscape:window-width="775"
     inkscape:window-height="753"
     inkscape:window-x="497"
     inkscape:window-y="0" />
  <metadata
     id="metadata2407">
    <rdf:RDF>
      <cc:Work
         rdf:about="">
        <dc:format>image/svg+xml</dc:format>
        <dc:type
           rdf:resource="http://purl.org/dc/dcmitype/StillImage" />
      </cc:Work>
    </rdf:RDF>
  </metadata>
  <g
     inkscape:label="Layer 1"
     inkscape:groupmode="layer"
     id="layer1">
    <path
       sodipodi:type="arc"
       style="opacity:1;fill:#6b6b6b;fill-opacity:0.22110554;stroke:none;stroke-width:0.37799999;stroke-linejoin:round;stroke-miterlimit:4;stroke-dasharray:none;stroke-dashoffset:0;stroke-opacity:1"
       id="path2390"
       sodipodi:cx="25.357143"
       sodipodi:cy="45.357143"
       sodipodi:rx="15.642858"
       sodipodi:ry="2.3571429"
       d="M 41.000001,45.357143 A 15.642858,2.3571429 0 1 1 9.7142859,45.357143 A 15.642858,2.3571429 0 1 1 41.000001,45.357143 z"
       transform="matrix(1.2304582,0,0,1.4687983,-6.057601,-22.406663)" />
    <text
       xml:space="preserve"
       style="font-size:12px;font-style:normal;font-weight:bold;fill:#000000;fill-opacity:1;stroke:none;stroke-width:1px;stroke-linecap:butt;stroke-linejoin:miter;stroke-opacity:1;font-family:Bitstream Vera Sans"
       x="14.42901"
       y="15.713826"
       id="text2387"><tspan
         sodipodi:role="line"
         id="tspan2389"
         x="14.42901"
         y="15.713826" /></text>
    <text
       xml:space="preserve"
       style="font-size:12px;font-style:normal;font-weight:normal;fill:#000000;fill-opacity:1;stroke:none;stroke-width:1px;stroke-linecap:butt;stroke-linejoin:miter;stroke-opacity:1;font-family:Bitstream Vera Sans"
       x="17.000444"
       y="16.713825"
       id="text2396"><tspan
         sodipodi:role="line"
         id="tspan2398"
         x="17.000444"
         y="16.713825"
         style="font-style:normal;font-weight:bold" /></text>
    <path
       style="font-size:48.18532562px;font-style:normal;font-variant:normal;font-weight:normal;font-stretch:normal;fill:#000066;fill-opacity:1;stroke:#000066;stroke-width:0.57521236;stroke-linecap:butt;stroke-linejoin:miter;stroke-miterlimit:4;stroke-opacity:1;font-family:'微软雅黑';-inkscape-font-specification:'微软雅黑'"
       d="M 17.021304,20.16482 L 33.465664,20.16482 L 33.465664,34.88807 L 19.755514,34.88807 L 19.755514,36.46275 L 17.021304,36.46275 L 17.021304,20.16482 M 19.560214,16.58242 L 19.560214,14.1023 L 41.941744,14.1023 L 41.941744,35.63604 C 41.941704,39.0216 40.275134,40.71438 36.942024,40.71439 C 35.405624,40.71438 33.830204,40.67501 32.215734,40.59628 C 32.111554,39.83518 31.916244,38.83789 31.629834,37.60439 C 33.504694,37.76186 35.210324,37.84059 36.746724,37.8406 C 38.283064,37.84059 39.051244,37.06638 39.051284,35.51794 L 39.051284,16.58242 L 19.560214,16.58242 M 13.349634,2.0166407 L 16.630694,2.0166407 C 16.005724,3.3026607 15.341704,4.5361507 14.638624,5.7171307 L 25.731734,5.7171307 L 25.731734,8.1972507 L 12.998095,8.1972507 C 11.435679,10.40183 9.6909894,12.3833 7.7640214,14.14167 C 7.2432164,13.51182 6.5661724,12.80321 5.7328884,12.01585 C 8.9358254,9.1814503 11.474739,5.8483907 13.349634,2.0166407 M 30.301784,2.0166407 L 33.582844,2.0166407 C 32.983894,3.3026607 32.332894,4.5361507 31.629834,5.7171307 L 44.090054,5.7171307 L 44.090054,8.1972507 L 30.184604,8.1972507 C 29.012774,10.0344 27.762844,11.77967 26.434824,13.43306 C 25.731714,12.93444 24.885414,12.3833 23.895904,11.77965 C 26.369694,8.9715007 28.504994,5.7171607 30.301784,2.0166407 M 8.7405284,17.96027 L 11.630987,17.96027 L 11.630987,40.79312 L 8.7405284,40.79312 L 8.7405284,17.96027 M 19.755514,32.52605 L 30.731444,32.52605 L 30.731444,28.62872 L 19.755514,28.62872 L 19.755514,32.52605 M 30.731444,22.52684 L 19.755514,22.52684 L 19.755514,26.34543 L 30.731444,26.34543 L 30.731444,22.52684 M 10.927902,13.59053 L 12.841853,11.89775 C 14.456334,13.31498 15.953644,14.78468 17.333784,16.30685 L 15.146404,18.31457 C 13.922514,16.76615 12.516344,15.19148 10.927902,13.59053 M 35.340554,13.90547 C 34.845764,13.11815 33.791134,11.77967 32.176674,9.8900303 L 34.207814,8.4334607 C 35.613944,9.7982003 36.759714,11.0317 37.645114,12.13395 L 35.340554,13.90547 M 18.739954,13.8661 C 17.802494,12.55389 16.773904,11.25478 15.654194,9.9687703 L 17.685324,8.4728207 C 18.857114,9.5751203 19.976844,10.78238 21.044504,12.09458 L 18.739954,13.8661"
       id="text3181" />
    <path
       style="font-size:48px;font-style:normal;font-variant:normal;font-weight:normal;font-stretch:normal;fill:url(#linearGradient3192);fill-opacity:1;stroke:#0066f0;stroke-width:0.57300001;stroke-linecap:butt;stroke-linejoin:miter;stroke-miterlimit:4;stroke-opacity:1;font-family:'微软雅黑';-inkscape-font-specification:'微软雅黑'"
       d="M 15.260011,18.649901 L 31.705321,18.649901 L 31.705321,33.259281 L 17.994381,33.259281 L 17.994381,34.821781 L 15.260011,34.821781 L 15.260011,18.649901 M 17.799071,15.095221 L 17.799071,12.634281 L 40.181881,12.634281 L 40.181881,34.001471 C 40.181851,37.360841 38.515181,39.040521 35.181881,39.040531 C 33.645401,39.040521 32.069881,39.001461 30.455321,38.923341 C 30.351131,38.168131 30.155821,37.178551 29.869381,35.954591 C 31.744361,36.110841 33.450081,36.188971 34.986571,36.188971 C 36.523001,36.188971 37.291231,35.420741 37.291261,33.884281 L 37.291261,15.095221 L 17.799071,15.095221 M 11.588136,0.64209156 L 14.869381,0.64209156 C 14.244371,1.9181716 13.580311,3.1421216 12.877201,4.3139716 L 23.970951,4.3139716 L 23.970951,6.7749016 L 11.236574,6.7749016 C 9.6740685,8.9624312 7.9292775,10.928571 6.0021995,12.673341 C 5.4813635,12.048361 4.8042815,11.345241 3.9709495,10.563971 C 7.1740705,7.7514916 9.7131305,4.4442116 11.588136,0.64209156 M 28.541261,0.64209156 L 31.822511,0.64209156 C 31.223521,1.9181716 30.572481,3.1421216 29.869381,4.3139716 L 42.330321,4.3139716 L 42.330321,6.7749016 L 28.424071,6.7749016 C 27.252171,8.5978512 26.002171,10.329621 24.674071,11.970221 C 23.970931,11.475451 23.124571,10.928571 22.135011,10.329591 C 24.608951,7.5431616 26.744361,4.3140016 28.541261,0.64209156 M 6.9787615,16.462401 L 9.8693864,16.462401 L 9.8693864,39.118651 L 6.9787615,39.118651 L 6.9787615,16.462401 M 17.994381,30.915531 L 28.970951,30.915531 L 28.970951,27.048341 L 17.994381,27.048341 L 17.994381,30.915531 M 28.970951,20.993651 L 17.994381,20.993651 L 17.994381,24.782721 L 28.970951,24.782721 L 28.970951,20.993651 M 9.1662615,12.126471 L 11.080324,10.446781 C 12.694901,11.853051 14.192291,13.311381 15.572511,14.821781 L 13.385011,16.813971 C 12.161044,15.277531 10.754796,13.715031 9.1662615,12.126471 M 33.580321,12.438971 C 33.085501,11.657741 32.030811,10.329621 30.416261,8.4545912 L 32.447511,7.0092816 C 33.853731,8.3634716 34.999561,9.5874313 35.885011,10.681151 L 33.580321,12.438971 M 16.978761,12.399901 C 16.041251,11.097841 15.012601,9.8087813 13.892821,8.5327212 L 15.924071,7.0483416 C 17.095931,8.1421216 18.215721,9.3400313 19.283451,10.642091 L 16.978761,12.399901"
       id="text2399" />
  </g>
</svg>
