<?xml version="1.0" encoding="UTF-8" standalone="no"?>
<!-- Created with Inkscape (http://www.inkscape.org/) -->
<svg
   xmlns:dc="http://purl.org/dc/elements/1.1/"
   xmlns:cc="http://creativecommons.org/ns#"
   xmlns:rdf="http://www.w3.org/1999/02/22-rdf-syntax-ns#"
   xmlns:svg="http://www.w3.org/2000/svg"
   xmlns="http://www.w3.org/2000/svg"
   xmlns:xlink="http://www.w3.org/1999/xlink"
   xmlns:sodipodi="http://sodipodi.sourceforge.net/DTD/sodipodi-0.dtd"
   xmlns:inkscape="http://www.inkscape.org/namespaces/inkscape"
   width="48"
   height="48"
   id="svg2402"
   sodipodi:version="0.32"
   inkscape:version="0.46"
   version="1.0"
   sodipodi:docname="tc-mode.svg"
   inkscape:output_extension="org.inkscape.output.svg.inkscape">
  <defs
     id="defs2404">
    <linearGradient
       id="linearGradient3165">
      <stop
         style="stop-color:#3e9ade;stop-opacity:1;"
         offset="0"
         id="stop3167" />
      <stop
         style="stop-color:#ffffff;stop-opacity:1;"
         offset="1"
         id="stop3169" />
    </linearGradient>
    <linearGradient
       inkscape:collect="always"
       xlink:href="#linearGradient3165"
       id="linearGradient3192"
       gradientUnits="userSpaceOnUse"
       gradientTransform="translate(2.1737265e-3,-0.4478433)"
       x1="3.9687493"
       y1="20.632252"
       x2="43.40625"
       y2="20.632252" />
    <inkscape:perspective
       sodipodi:type="inkscape:persp3d"
       inkscape:vp_x="0 : 526.18109 : 1"
       inkscape:vp_y="0 : 1000 : 0"
       inkscape:vp_z="744.09448 : 526.18109 : 1"
       inkscape:persp3d-origin="372.04724 : 350.78739 : 1"
       id="perspective2410" />
  </defs>
  <sodipodi:namedview
     id="base"
     pagecolor="#ffffff"
     bordercolor="#666666"
     borderopacity="1.0"
     gridtolerance="10000"
     guidetolerance="10"
     objecttolerance="10"
     inkscape:pageopacity="0.0"
     inkscape:pageshadow="2"
     inkscape:zoom="3.959798"
     inkscape:cx="21.279508"
     inkscape:cy="12.901091"
     inkscape:document-units="px"
     inkscape:current-layer="layer1"
     showgrid="false"
     inkscape:window-width="775"
     inkscape:window-height="753"
     inkscape:window-x="497"
     inkscape:window-y="0" />
  <metadata
     id="metadata2407">
    <rdf:RDF>
      <cc:Work
         rdf:about="">
        <dc:format>image/svg+xml</dc:format>
        <dc:type
           rdf:resource="http://purl.org/dc/dcmitype/StillImage" />
      </cc:Work>
    </rdf:RDF>
  </metadata>
  <g
     inkscape:label="Layer 1"
     inkscape:groupmode="layer"
     id="layer1">
    <path
       sodipodi:type="arc"
       style="opacity:1;fill:#6b6b6b;fill-opacity:0.22110554;stroke:none;stroke-width:0.37799999;stroke-linejoin:round;stroke-miterlimit:4;stroke-dasharray:none;stroke-dashoffset:0;stroke-opacity:1"
       id="path2390"
       sodipodi:cx="25.357143"
       sodipodi:cy="45.357143"
       sodipodi:rx="15.642858"
       sodipodi:ry="2.3571429"
       d="M 41.000001,45.357143 A 15.642858,2.3571429 0 1 1 9.7142859,45.357143 A 15.642858,2.3571429 0 1 1 41.000001,45.357143 z"
       transform="matrix(1.2304582,0,0,1.4687983,-6.05798,-22.406663)" />
    <text
       xml:space="preserve"
       style="font-size:12px;font-style:normal;font-weight:bold;fill:#000000;fill-opacity:1;stroke:none;stroke-width:1px;stroke-linecap:butt;stroke-linejoin:miter;stroke-opacity:1;font-family:Bitstream Vera Sans"
       x="14.428642"
       y="15.713862"
       id="text2387"><tspan
         sodipodi:role="line"
         id="tspan2389"
         x="14.428642"
         y="15.713862" /></text>
    <text
       xml:space="preserve"
       style="font-size:12px;font-style:normal;font-weight:normal;fill:#000000;fill-opacity:1;stroke:none;stroke-width:1px;stroke-linecap:butt;stroke-linejoin:miter;stroke-opacity:1;font-family:Bitstream Vera Sans"
       x="17.000053"
       y="16.713863"
       id="text2396"><tspan
         sodipodi:role="line"
         id="tspan2398"
         x="17.000053"
         y="16.713863"
         style="font-style:normal;font-weight:bold" /></text>
    <path
       style="font-size:48.18532562px;font-style:normal;font-variant:normal;font-weight:normal;font-stretch:normal;fill:#000066;fill-opacity:1;stroke:#000066;stroke-width:0.57521236;stroke-linecap:butt;stroke-linejoin:miter;stroke-miterlimit:4;stroke-opacity:1;font-family:'微软雅黑';-inkscape-font-specification:'微软雅黑'"
       d="M 6.23776,13.781023 L 10.0266,13.781023 L 11.08123,8.899513 L 24.98668,8.899513 L 24.63514,13.781023 L 28.54116,13.781023 L 28.54116,15.749373 L 24.51796,15.749373 L 24.32266,18.701893 L 26.58815,18.701893 L 26.58815,20.670243 L 24.24453,20.670243 L 24.12735,22.048093 L 23.07273,22.048093 C 20.83326,22.992913 18.64589,23.898353 16.51061,24.764413 C 20.67702,24.554463 25.0778,24.318263 29.71297,24.055813 C 31.32743,23.320973 32.91588,22.546753 34.47832,21.733153 L 36.70475,23.662133 C 30.50717,26.391593 24.14036,28.753613 17.60429,30.748193 C 24.0362,30.538243 29.88221,30.288923 35.14234,30.000223 C 34.25695,29.134153 33.41065,28.333693 32.60343,27.598833 L 34.47832,26.024153 C 36.50942,27.756313 38.94417,29.973983 41.78259,32.677173 L 39.67333,34.566793 C 38.86606,33.726963 38.07183,32.926503 37.29066,32.165403 C 33.72313,32.270393 30.52019,32.362243 27.68184,32.440973 L 27.68184,36.102103 C 27.68181,39.120243 26.23659,40.629303 23.34615,40.629313 C 21.78372,40.629303 20.13017,40.603063 18.3855,40.550573 C 18.28132,39.736983 18.12508,38.792183 17.91678,37.716153 C 19.73957,37.926103 21.2499,38.031083 22.44776,38.031093 C 24.01016,38.031083 24.79136,37.322483 24.79138,35.905273 L 24.79138,32.559073 C 18.3334,32.716553 13.84148,33.005243 11.31559,33.425153 L 10.14378,30.787563 C 11.78431,30.551363 13.529,30.144573 15.37786,29.567183 C 18.58079,28.569893 21.69258,27.454503 24.71326,26.220993 C 18.09904,26.588423 13.84148,26.916483 11.94056,27.205163 L 10.88593,24.843143 C 13.43786,24.213283 16.75798,22.822323 20.84629,20.670243 L 8.54231,20.670243 L 9.59694,15.749373 L 6.23776,15.749373 L 6.23776,13.781023 M 26.19755,10.710403 C 28.41094,8.427143 30.16865,5.579603 31.47068,2.167763 L 33.97054,2.876373 C 33.55387,3.899943 33.09816,4.884113 32.60343,5.828893 L 44.39962,5.828893 L 44.39962,8.190913 L 41.35292,8.190913 C 40.83209,11.209073 39.55612,13.846653 37.52502,16.103673 C 39.42592,17.494663 41.80859,18.610063 44.67305,19.449873 C 43.73556,20.525913 43.07154,21.352623 42.68097,21.929993 C 39.84256,20.853973 37.45989,19.528623 35.53295,17.953923 C 33.65803,19.476133 31.35347,20.788363 28.61928,21.890623 C 28.17658,21.182033 27.61671,20.407813 26.93969,19.567973 C 29.62181,18.675673 31.86126,17.547153 33.65806,16.182413 C 32.0175,14.397793 30.83267,12.363833 30.10357,10.080523 C 29.47858,10.999113 28.82758,11.878313 28.15056,12.718113 C 27.49953,12.009533 26.84853,11.340293 26.19755,10.710403 M 6.23776,9.6474926 C 8.71157,7.416723 10.50834,4.870993 11.62807,2.010293 L 14.04981,2.679533 C 13.76336,3.335683 13.45088,3.978673 13.11236,4.608513 L 27.01781,4.608513 L 27.01781,6.734333 L 11.9015,6.734333 C 10.78176,8.492753 9.46674,10.146163 7.95641,11.694573 C 7.40957,10.985993 6.83668,10.303633 6.23776,9.6474926 M 17.44805,33.700723 L 19.24482,35.669073 C 15.88563,37.217503 12.37021,38.687203 8.69856,40.078173 C 8.33399,39.500783 7.86527,38.739693 7.29239,37.794883 C 11.09425,36.535143 14.47946,35.170423 17.44805,33.700723 M 31.47068,35.747803 L 32.75967,33.740083 C 35.3897,34.684893 38.74887,36.062743 42.83721,37.873623 L 41.47011,40.196273 C 37.90257,38.464123 34.56943,36.981303 31.47068,35.747803 M 35.57201,14.450263 C 37.21251,12.665653 38.26713,10.579203 38.73589,8.190913 L 32.09564,8.190913 C 32.72058,10.605443 33.87937,12.691893 35.57201,14.450263 M 14.98726,17.087853 L 16.04188,15.749373 L 11.97962,15.749373 L 11.35465,18.701893 L 17.36993,18.701893 C 16.771,18.229513 15.97677,17.691493 14.98726,17.087853 M 19.01046,17.284683 L 17.83865,18.701893 L 21.90092,18.701893 L 22.13528,15.749373 L 16.47155,15.749373 C 17.38294,16.248043 18.22924,16.759813 19.01046,17.284683 M 19.362,12.481913 L 18.11208,13.781023 L 22.29152,13.781023 L 22.52588,10.867863 L 17.01839,10.867863 C 17.8777,11.445273 18.65891,11.983293 19.362,12.481913 M 15.41692,12.088243 L 16.54967,10.867863 L 13.03424,10.867863 L 12.40928,13.781023 L 17.64335,13.781023 C 16.86214,13.124933 16.11999,12.560673 15.41692,12.088243"
       id="text3181" />
    <path
       style="font-size:48px;font-style:normal;font-variant:normal;font-weight:normal;font-stretch:normal;fill:url(#linearGradient3192);fill-opacity:1;stroke:#0066f0;stroke-width:0.57300001;stroke-linecap:butt;stroke-linejoin:miter;stroke-miterlimit:4;stroke-opacity:1;font-family:'微软雅黑';-inkscape-font-specification:'微软雅黑'"
       d="M 4.7834237,12.489107 L 8.5724837,12.489107 L 9.6271737,7.6453567 L 23.533424,7.6453567 L 23.181854,12.489107 L 27.088104,12.489107 L 27.088104,14.442227 L 23.064674,14.442227 L 22.869354,17.371917 L 25.134984,17.371917 L 25.134984,19.325047 L 22.791234,19.325047 L 22.674044,20.692227 L 21.619354,20.692227 C 19.379764,21.629747 17.192264,22.528177 15.056854,23.387547 C 19.223514,23.179217 23.624544,22.944847 28.259984,22.684417 C 29.874544,21.955267 31.463084,21.187037 33.025604,20.379727 L 35.252174,22.293797 C 29.054224,25.002137 22.687044,27.345887 16.150604,29.325047 C 22.582884,29.116717 28.429234,28.869317 33.689674,28.582857 C 32.804224,27.723487 31.957874,26.929217 31.150604,26.200047 L 33.025604,24.637547 C 35.056824,26.356297 37.491724,28.556817 40.330294,31.239107 L 38.220924,33.114107 C 37.413594,32.280777 36.619324,31.486507 35.838104,30.731297 C 32.270374,30.835467 29.067254,30.926607 26.228734,31.004727 L 26.228734,34.637547 C 26.228714,37.632327 24.783404,39.129727 21.892794,39.129727 C 20.330274,39.129727 18.676634,39.103687 16.931854,39.051607 C 16.827674,38.244307 16.671424,37.306807 16.463104,36.239107 C 18.286014,36.447437 19.796424,36.551607 20.994354,36.551607 C 22.556844,36.551607 23.338084,35.848477 23.338104,34.442227 L 23.338104,31.121917 C 16.879764,31.278167 12.387574,31.564627 9.8615437,31.981297 L 8.6896737,29.364107 C 10.330284,29.129737 12.075074,28.726087 13.924044,28.153167 C 17.127154,27.163587 20.239134,26.056817 23.259984,24.832857 C 16.645384,25.197447 12.387574,25.522967 10.486544,25.809417 L 9.4318537,23.465667 C 11.983934,22.840677 15.304244,21.460477 19.392794,19.325047 L 7.0881037,19.325047 L 8.1427937,14.442227 L 4.7834237,14.442227 L 4.7834237,12.489107 M 24.744354,9.4422266 C 26.957874,7.1766367 28.715684,4.3511167 30.017794,0.96566669 L 32.517794,1.6687967 C 32.101104,2.6844467 31.645374,3.6610067 31.150604,4.5984767 L 42.947484,4.5984767 L 42.947484,6.9422267 L 39.900604,6.9422267 C 39.379744,9.9370466 38.103694,12.554227 36.072484,14.793797 C 37.973494,16.174017 40.356304,17.280787 43.220924,18.114107 C 42.283384,19.181827 41.619324,20.002137 41.228734,20.575047 C 38.390154,19.507347 36.007344,18.192247 34.080294,16.629727 C 32.205264,18.140167 29.900584,19.442247 27.166234,20.535977 C 26.723504,19.832867 26.163604,19.064637 25.486544,18.231297 C 28.168814,17.345897 30.408394,16.226107 32.205294,14.871917 C 30.564644,13.101107 29.379754,11.082877 28.650604,8.8172263 C 28.025584,9.7287166 27.374544,10.601107 26.697484,11.434417 C 26.046424,10.731317 25.395374,10.067257 24.744354,9.4422266 M 4.7834237,8.3875467 C 7.2573737,6.1740267 9.0542537,3.6479867 10.174044,0.80941669 L 12.595924,1.4734767 C 12.309454,2.1245567 11.996954,2.7625767 11.658424,3.3875467 L 25.564674,3.3875467 L 25.564674,5.4969167 L 10.447484,5.4969167 C 9.3276837,7.2417367 8.0125837,8.8823563 6.5021737,10.418797 C 5.9552937,9.7156966 5.3823737,9.0386063 4.7834237,8.3875467 M 15.994354,32.254727 L 17.791234,34.207857 C 14.431844,35.744317 10.916224,37.202647 7.2443537,38.582857 C 6.8797737,38.009937 6.4110237,37.254727 5.8381037,36.317227 C 9.6401837,35.067227 13.025594,33.713067 15.994354,32.254727 M 30.017794,34.285977 L 31.306854,32.293797 C 33.937034,33.231297 37.296404,34.598477 41.384984,36.395357 L 40.017794,38.700047 C 36.450054,36.981287 33.116724,35.509937 30.017794,34.285977 M 34.119354,13.153167 C 35.759954,11.382357 36.814634,9.3120466 37.283424,6.9422267 L 30.642794,6.9422267 C 31.267764,9.3380866 32.426624,11.408397 34.119354,13.153167 M 13.533424,15.770357 L 14.588104,14.442227 L 10.525604,14.442227 L 9.9006037,17.371917 L 15.916234,17.371917 C 15.317264,16.903187 14.522994,16.369327 13.533424,15.770357 M 17.556854,15.965667 L 16.384984,17.371917 L 20.447484,17.371917 L 20.681854,14.442227 L 15.017794,14.442227 C 15.929244,14.937037 16.775594,15.444857 17.556854,15.965667 M 17.908424,11.200047 L 16.658424,12.489107 L 20.838104,12.489107 L 21.072484,9.5984766 L 15.564674,9.5984766 C 16.424034,10.171417 17.205284,10.705277 17.908424,11.200047 M 13.963104,10.809417 L 15.095924,9.5984766 L 11.580294,9.5984766 L 10.955294,12.489107 L 16.189674,12.489107 C 15.408404,11.838087 14.666224,11.278187 13.963104,10.809417"
       id="text2399" />
  </g>
</svg>
