<?xml version="1.0" encoding="UTF-8" standalone="no"?>
<!-- Created with Inkscape (http://www.inkscape.org/) -->
<svg
   xmlns:dc="http://purl.org/dc/elements/1.1/"
   xmlns:cc="http://creativecommons.org/ns#"
   xmlns:rdf="http://www.w3.org/1999/02/22-rdf-syntax-ns#"
   xmlns:svg="http://www.w3.org/2000/svg"
   xmlns="http://www.w3.org/2000/svg"
   xmlns:xlink="http://www.w3.org/1999/xlink"
   xmlns:sodipodi="http://sodipodi.sourceforge.net/DTD/sodipodi-0.dtd"
   xmlns:inkscape="http://www.inkscape.org/namespaces/inkscape"
   width="48"
   height="48"
   id="svg2458"
   sodipodi:version="0.32"
   inkscape:version="0.46"
   version="1.0"
   sodipodi:docname="tcb-mode.svg"
   inkscape:output_extension="org.inkscape.output.svg.inkscape">
  <defs
     id="defs2460">
    <linearGradient
       inkscape:collect="always"
       xlink:href="#linearGradient3165"
       id="linearGradient2548"
       gradientUnits="userSpaceOnUse"
       gradientTransform="matrix(0.7438887,0,0,0.7438887,-57.506269,-16.060684)"
       x1="3.9687493"
       y1="20.632252"
       x2="43.40625"
       y2="20.632252" />
    <linearGradient
       id="linearGradient3165">
      <stop
         style="stop-color:#3e9ade;stop-opacity:1;"
         offset="0"
         id="stop3167" />
      <stop
         style="stop-color:#ffffff;stop-opacity:1;"
         offset="1"
         id="stop3169" />
    </linearGradient>
    <linearGradient
       inkscape:collect="always"
       xlink:href="#linearGradient3165"
       id="linearGradient2544"
       gradientUnits="userSpaceOnUse"
       gradientTransform="matrix(0.6677356,0,0,0.6677356,23.595224,7.3388878)"
       x1="3.9687493"
       y1="20.632252"
       x2="43.40625"
       y2="20.632252" />
    <inkscape:perspective
       sodipodi:type="inkscape:persp3d"
       inkscape:vp_x="0 : 526.18109 : 1"
       inkscape:vp_y="0 : 1000 : 0"
       inkscape:vp_z="744.09448 : 526.18109 : 1"
       inkscape:persp3d-origin="372.04724 : 350.78739 : 1"
       id="perspective2466" />
    <linearGradient
       inkscape:collect="always"
       xlink:href="#linearGradient3165"
       id="linearGradient2406"
       gradientUnits="userSpaceOnUse"
       gradientTransform="matrix(0.4721461,0,0,0.4721461,6.4752491,-1.236169)"
       x1="3.9687493"
       y1="20.632252"
       x2="43.40625"
       y2="20.632252" />
    <linearGradient
       inkscape:collect="always"
       xlink:href="#linearGradient3165"
       id="linearGradient2411"
       gradientUnits="userSpaceOnUse"
       gradientTransform="matrix(0.7286807,0,0,0.7286807,16.088632,8.0082901)"
       x1="3.9687493"
       y1="20.632252"
       x2="43.40625"
       y2="20.632252" />
  </defs>
  <sodipodi:namedview
     id="base"
     pagecolor="#ffffff"
     bordercolor="#666666"
     borderopacity="1.0"
     gridtolerance="10000"
     guidetolerance="10"
     objecttolerance="10"
     inkscape:pageopacity="0.0"
     inkscape:pageshadow="2"
     inkscape:zoom="5.6"
     inkscape:cx="-3.7875128"
     inkscape:cy="22.413818"
     inkscape:document-units="px"
     inkscape:current-layer="layer1"
     showgrid="false"
     inkscape:window-width="775"
     inkscape:window-height="753"
     inkscape:window-x="91"
     inkscape:window-y="0" />
  <metadata
     id="metadata2463">
    <rdf:RDF>
      <cc:Work
         rdf:about="">
        <dc:format>image/svg+xml</dc:format>
        <dc:type
           rdf:resource="http://purl.org/dc/dcmitype/StillImage" />
      </cc:Work>
    </rdf:RDF>
  </metadata>
  <g
     inkscape:label="Layer 1"
     inkscape:groupmode="layer"
     id="layer1">
    <path
       sodipodi:type="arc"
       style="opacity:1;fill:#6b6b6b;fill-opacity:0.22110554;stroke:none;stroke-width:0.37799999;stroke-linejoin:round;stroke-miterlimit:4;stroke-dasharray:none;stroke-dashoffset:0;stroke-opacity:1"
       id="path2390"
       sodipodi:cx="25.357143"
       sodipodi:cy="45.357143"
       sodipodi:rx="15.642858"
       sodipodi:ry="2.3571429"
       d="M 41.000001,45.357143 A 15.642858,2.3571429 0 1 1 9.7142859,45.357143 A 15.642858,2.3571429 0 1 1 41.000001,45.357143 z"
       transform="matrix(1.2304582,0,0,1.4687983,-7.200905,-22.406663)" />
    <text
       xml:space="preserve"
       style="font-size:12px;font-style:normal;font-weight:bold;fill:#000000;fill-opacity:1;stroke:none;stroke-width:1px;stroke-linecap:butt;stroke-linejoin:miter;stroke-opacity:1;font-family:Bitstream Vera Sans"
       x="14.428325"
       y="15.713815"
       id="text2387"><tspan
         sodipodi:role="line"
         id="tspan2389"
         x="14.428325"
         y="15.713815" /></text>
    <text
       xml:space="preserve"
       style="font-size:12px;font-style:normal;font-weight:normal;fill:#000000;fill-opacity:1;stroke:none;stroke-width:1px;stroke-linecap:butt;stroke-linejoin:miter;stroke-opacity:1;font-family:Bitstream Vera Sans"
       x="16.999737"
       y="16.713814"
       id="text2396"><tspan
         sodipodi:role="line"
         id="tspan2398"
         x="16.999737"
         y="16.713814"
         style="font-style:normal;font-weight:bold" /></text>
    <text
       xml:space="preserve"
       style="font-size:35.11172104px;font-style:normal;font-variant:normal;font-weight:normal;font-stretch:normal;fill:#000066;fill-opacity:1;stroke:#000066;stroke-width:0.41914615;stroke-linecap:butt;stroke-linejoin:miter;stroke-miterlimit:4;stroke-dasharray:none;stroke-opacity:1;font-family:'微软雅黑';-inkscape-font-specification:'微软雅黑'"
       x="21.01346"
       y="34.769386"
       id="text3181"
       transform="scale(0.9403876,1.0633913)"><tspan
         sodipodi:role="line"
         id="tspan3183"
         x="21.01346"
         y="34.769386"
         style="font-size:29.25976562px;font-weight:bold;fill:#000066;fill-opacity:1;stroke:#000066;stroke-width:0.41914615;stroke-miterlimit:4;stroke-dasharray:none;stroke-opacity:1;-inkscape-font-specification:'微软雅黑 Bold'">大</tspan></text>
    <text
       xml:space="preserve"
       style="font-size:34.97667313px;font-style:normal;font-variant:normal;font-weight:normal;font-stretch:normal;fill:url(#linearGradient2411);fill-opacity:1;stroke:#0066f0;stroke-width:0.41753405;stroke-linecap:butt;stroke-linejoin:miter;stroke-miterlimit:4;stroke-dasharray:none;stroke-opacity:1;font-family:'微软雅黑';-inkscape-font-specification:'微软雅黑'"
       x="19.003357"
       y="33.303925"
       id="text2399"
       transform="scale(0.9440728,1.0592403)"><tspan
         sodipodi:role="line"
         id="tspan2401"
         x="19.003357"
         y="33.303925"
         style="font-size:29.14722824px;font-weight:bold;fill:url(#linearGradient2411);fill-opacity:1;stroke:#0066f0;stroke-width:0.41753405;stroke-miterlimit:4;stroke-dasharray:none;stroke-opacity:1;-inkscape-font-specification:'微软雅黑 Bold'">大</tspan></text>
    <text
       xml:space="preserve"
       style="font-size:12px;font-style:normal;font-weight:bold;fill:#000000;fill-opacity:1;stroke:none;stroke-width:1px;stroke-linecap:butt;stroke-linejoin:miter;stroke-opacity:1;font-family:Bitstream Vera Sans"
       x="-65.433861"
       y="18.681892"
       id="text2495"><tspan
         sodipodi:role="line"
         id="tspan2497"
         x="-65.433861"
         y="18.681892" /></text>
    <text
       xml:space="preserve"
       style="font-size:12px;font-style:normal;font-weight:normal;fill:#000000;fill-opacity:1;stroke:none;stroke-width:1px;stroke-linecap:butt;stroke-linejoin:miter;stroke-opacity:1;font-family:Bitstream Vera Sans"
       x="-62.862385"
       y="19.681892"
       id="text2499"><tspan
         sodipodi:role="line"
         id="tspan2501"
         x="-62.862385"
         y="19.681892"
         style="font-style:normal;font-weight:bold" /></text>
    <text
       xml:space="preserve"
       style="font-size:12px;font-style:normal;font-weight:bold;fill:#000000;fill-opacity:1;stroke:none;stroke-width:1px;stroke-linecap:butt;stroke-linejoin:miter;stroke-opacity:1;font-family:Bitstream Vera Sans"
       x="-57.124348"
       y="0.1254357"
       id="text2523"><tspan
         sodipodi:role="line"
         id="tspan2525"
         x="-57.124348"
         y="0.1254357" /></text>
    <text
       xml:space="preserve"
       style="font-size:12px;font-style:normal;font-weight:normal;fill:#000000;fill-opacity:1;stroke:none;stroke-width:1px;stroke-linecap:butt;stroke-linejoin:miter;stroke-opacity:1;font-family:Bitstream Vera Sans"
       x="-54.552937"
       y="1.1254357"
       id="text2527"><tspan
         sodipodi:role="line"
         id="tspan2529"
         x="-54.552937"
         y="1.1254357"
         style="font-style:normal;font-weight:bold" /></text>
    <path
       style="font-size:48.18532562px;font-style:normal;font-variant:normal;font-weight:normal;font-stretch:normal;fill:#000066;fill-opacity:1;stroke:#000066;stroke-width:0.36508724;stroke-linecap:butt;stroke-linejoin:miter;stroke-miterlimit:4;stroke-opacity:1;font-family:'微软雅黑';-inkscape-font-specification:'微软雅黑'"
       d="M 1.8761956,8.6486917 L 4.2809745,8.6486917 L 4.9503461,5.5504003 L 13.776133,5.5504003 L 13.553009,8.6486917 L 16.032162,8.6486917 L 16.032162,9.8980024 L 13.478634,9.8980024 L 13.354677,11.771969 L 14.792586,11.771969 L 14.792586,13.021281 L 13.305094,13.021281 L 13.230719,13.895798 L 12.561348,13.895798 C 11.139957,14.495476 9.7516321,15.070158 8.3963699,15.619848 C 11.04079,15.486595 13.833967,15.336678 16.775909,15.170096 C 17.800609,14.703694 18.808797,14.212299 19.800477,13.695909 L 21.213594,14.920233 C 17.279988,16.652618 13.238971,18.151789 9.0905329,19.417754 C 13.17286,19.284497 16.883324,19.126251 20.221933,18.943016 C 19.659973,18.393322 19.122824,17.885271 18.610482,17.418856 L 19.800477,16.419406 C 21.089616,17.518806 22.634954,18.926362 24.436494,20.642079 L 23.097751,21.841418 C 22.585371,21.308379 22.081277,20.800327 21.585467,20.317258 C 19.321155,20.38389 17.288251,20.442191 15.486749,20.492161 L 15.486749,22.81588 C 15.486735,24.731488 14.569449,25.689293 12.734888,25.689296 C 11.743217,25.689293 10.693709,25.672635 9.586363,25.639323 C 9.5202444,25.122939 9.4210789,24.523271 9.2888652,23.840315 C 10.445794,23.973574 11.404399,24.040204 12.164683,24.040206 C 13.156333,24.040204 13.652163,23.590452 13.652176,22.690948 L 13.652176,20.56712 C 9.5532996,20.667067 6.7022759,20.850299 5.0990957,21.116816 L 4.3553493,19.44274 C 5.3965897,19.292825 6.5039442,19.034635 7.6774155,18.668167 C 9.7103131,18.035187 11.685369,17.327245 13.602592,16.544338 C 9.4045507,16.777548 6.7022759,16.985767 5.4957603,17.168994 L 4.8263886,15.66982 C 6.4460971,15.270048 8.5533756,14.387202 11.14823,13.021281 L 3.3388964,13.021281 L 4.0082681,9.8980024 L 1.8761956,9.8980024 L 1.8761956,8.6486917 M 14.54467,6.6997668 C 15.94951,5.250583 17.065128,3.443248 17.891528,1.2777559 L 19.478186,1.727508 C 19.213725,2.3771703 18.924491,3.0018251 18.610482,3.6014749 L 26.097526,3.6014749 L 26.097526,5.1006483 L 24.163787,5.1006483 C 23.833211,7.0162743 23.023355,8.6903497 21.734216,10.122879 C 22.940716,11.005737 24.452998,11.713679 26.271068,12.246707 C 25.676046,12.929674 25.254591,13.454384 25.006698,13.82084 C 23.205159,13.137892 21.692877,12.29669 20.469848,11.297231 C 19.279836,12.263376 17.817137,13.096249 16.081746,13.795853 C 15.80076,13.346111 15.445415,12.854715 15.01571,12.321666 C 16.718046,11.755323 18.139426,11.039052 19.279854,10.172851 C 18.238593,9.0401564 17.486583,7.7492026 17.023824,6.2999873 C 16.627145,6.8830148 16.213953,7.4410398 15.784247,7.974064 C 15.371041,7.5243272 14.957849,7.0995616 14.54467,6.6997668 M 1.8761956,6.0251385 C 3.4463244,4.6092706 4.5867335,2.9934964 5.2974273,1.1778116 L 6.8345029,1.6025769 C 6.6526925,2.0190346 6.4543608,2.4271428 6.239506,2.8269022 L 15.065293,2.8269022 L 15.065293,4.1761581 L 5.4709689,4.1761581 C 4.7602745,5.2922266 3.925627,6.3416472 2.9670232,7.3244224 C 2.6199407,6.8746856 2.2563319,6.441592 1.8761956,6.0251385 M 8.9913668,21.291721 L 10.131777,22.541031 C 7.999699,23.523823 5.7684622,24.45664 3.4380625,25.339488 C 3.2066732,24.973022 2.9091747,24.489955 2.5455672,23.890288 C 4.9586061,23.090728 7.1072036,22.22454 8.9913668,21.291721 M 17.891528,22.591004 L 18.709649,21.316707 C 20.378926,21.916377 22.510996,22.790893 25.105865,23.94026 L 24.238161,25.414447 C 21.973847,24.315052 19.858305,23.373905 17.891528,22.591004 M 20.494639,9.0734574 C 21.535864,7.9407634 22.205234,6.6164954 22.502753,5.1006483 L 18.288192,5.1006483 C 18.68484,6.6331527 19.420321,7.9574214 20.494639,9.0734574 M 7.4294998,10.747534 L 8.0988708,9.8980024 L 5.5205516,9.8980024 L 5.123887,11.771969 L 8.9417834,11.771969 C 8.5616394,11.472146 8.0575455,11.130668 7.4294998,10.747534 M 9.9830281,10.872466 L 9.2392818,11.771969 L 11.817602,11.771969 L 11.966351,9.8980024 L 8.3715785,9.8980024 C 8.9500396,10.214507 9.4871893,10.539328 9.9830281,10.872466 M 10.206152,7.8241467 L 9.4128228,8.6486917 L 12.065517,8.6486917 L 12.214266,6.7997116 L 8.7186597,6.7997116 C 9.2640656,7.1661917 9.7598961,7.5076698 10.206152,7.8241467 M 7.7022062,7.5742845 L 8.4211606,6.7997116 L 6.1899233,6.7997116 L 5.7932587,8.6486917 L 9.1153243,8.6486917 C 8.6194866,8.2322695 8.1484472,7.874134 7.7022062,7.5742845"
       id="path2531" />
    <path
       style="font-size:48px;font-style:normal;font-variant:normal;font-weight:normal;font-stretch:normal;fill:url(#linearGradient2406);fill-opacity:1;stroke:#0066f0;stroke-width:0.36368304;stroke-linecap:butt;stroke-linejoin:miter;stroke-miterlimit:4;stroke-opacity:1;font-family:'微软雅黑';-inkscape-font-specification:'微软雅黑'"
       d="M 0.91655554,7.79214 L 3.3214729,7.79214 L 3.9908833,4.7178123 L 12.817179,4.7178123 L 12.594042,7.79214 L 15.073339,7.79214 L 15.073339,9.0317884 L 12.519664,9.0317884 L 12.395699,10.89126 L 13.833691,10.89126 L 13.833691,12.130908 L 12.346113,12.130908 L 12.271734,12.998662 L 11.602324,12.998662 C 10.180851,13.593701 8.7924458,14.163939 7.4371051,14.709376 C 10.081679,14.577154 12.875017,14.428397 15.817128,14.263103 C 16.841888,13.800309 17.850134,13.312715 18.84187,12.800318 L 20.255069,14.015173 C 16.321236,15.734158 12.279987,17.221735 8.1313081,18.477907 C 12.213872,18.345681 15.924549,18.18866 19.26335,18.006841 C 18.701358,17.4614 18.164178,16.957277 17.651807,16.49447 L 18.84187,15.502751 C 20.131084,16.593647 21.676511,17.990316 23.478154,19.692763 L 22.139334,20.882825 C 21.626925,20.35391 21.122802,19.849786 20.626963,19.370454 C 18.362521,19.43657 16.3295,19.494421 14.527894,19.544005 L 14.527894,21.84975 C 14.52788,23.750543 13.610541,24.700938 11.775875,24.700942 C 10.784146,24.700938 9.7345771,24.68441 8.6271674,24.651356 C 8.561045,24.138965 8.4618731,23.543934 8.3296518,22.866262 C 9.4866483,22.99849 10.445309,23.064605 11.205636,23.064606 C 12.197344,23.064605 12.693202,22.618331 12.693214,21.725786 L 12.693214,19.618383 C 8.5941021,19.717557 5.742914,19.899372 4.1396411,20.163829 L 3.3958521,18.5027 C 4.4371522,18.353946 5.5445702,18.097752 6.7181094,17.734118 C 8.7511243,17.106034 10.726296,16.403567 12.643628,15.626716 C 8.4453443,15.858123 5.742914,16.064731 4.5363285,16.24654 L 3.8669181,14.758962 C 5.4867205,14.362282 7.5941203,13.486265 10.189125,12.130908 L 2.3793403,12.130908 L 3.0487506,9.0317884 L 0.91655554,9.0317884 L 0.91655554,7.79214 M 13.585761,5.8582888 C 14.990681,4.4203139 16.106364,2.6269579 16.932812,0.47821513 L 18.519561,0.92448843 C 18.255085,1.5691258 17.965834,2.188949 17.651807,2.783961 L 25.139283,2.783961 L 25.139283,4.2715389 L 23.205431,4.2715389 C 22.874837,6.1723484 22.064933,7.8334755 20.775721,9.2549244 C 21.98229,10.130954 23.49466,10.833421 25.312834,11.362326 C 24.717778,12.04001 24.296298,12.560662 24.048392,12.924283 C 22.246748,12.246618 20.734379,11.411923 19.51128,10.420194 C 18.3212,11.378865 16.858416,12.205297 15.122925,12.89949 C 14.841924,12.453226 14.486558,11.965632 14.056828,11.436705 C 15.759262,10.874742 17.180724,10.164011 18.321218,9.3045104 C 17.279896,8.1805763 16.527844,6.8996079 16.065058,5.4616013 C 15.668355,6.0401195 15.255139,6.5938285 14.825409,7.1227296 C 14.41218,6.6764715 13.998964,6.2549914 13.585761,5.8582888 M 0.91655554,5.1888786 C 2.4867746,3.7839618 3.6272497,2.1806852 4.3379848,0.37904323 L 5.8751486,0.80052393 C 5.693328,1.2137605 5.4949843,1.6187118 5.2801175,2.0153789 L 14.106414,2.0153789 L 14.106414,3.3541992 L 4.5115352,3.3541992 C 3.8008002,4.4616354 2.9661044,5.5029387 2.0074461,6.4781126 C 1.6603433,6.0318551 1.2967136,5.6021105 0.91655554,5.1888786 M 8.0321362,20.33738 L 9.1726126,21.577028 C 7.0404113,22.552217 4.8090464,23.47782 2.4785121,24.35384 C 2.2471094,23.990207 1.9495945,23.510877 1.5859654,22.915848 C 3.9991439,22.122473 6.1478652,21.262984 8.0321362,20.33738 M 16.932812,21.626614 L 17.750979,20.362172 C 19.420354,20.957204 21.552546,21.824958 24.147564,22.965434 L 23.279811,24.428219 C 21.015366,23.337327 18.899702,22.403459 16.932812,21.626614 M 19.536073,8.2136201 C 20.577357,7.0896872 21.246767,5.775661 21.544303,4.2715389 L 17.329499,4.2715389 C 17.726169,5.7921898 18.461693,7.106216 19.536073,8.2136201 M 6.4701798,9.8747494 L 7.1395895,9.0317884 L 4.5611212,9.0317884 L 4.1644337,10.89126 L 7.9825503,10.89126 C 7.6023847,10.593756 7.0982617,10.254919 6.4701798,9.8747494 M 9.0238548,9.9987134 L 8.2800659,10.89126 L 10.858535,10.89126 L 11.007293,9.0317884 L 7.4123124,9.0317884 C 7.9908071,9.3458444 8.5279879,9.6681524 9.0238548,9.9987134 M 9.2469918,6.9739719 L 8.453617,7.79214 L 11.106465,7.79214 L 11.255222,5.9574606 L 7.7594139,5.9574606 C 8.3048509,6.3211062 8.8007102,6.6599427 9.2469918,6.9739719 M 6.7429021,6.7260422 L 7.4618984,5.9574606 L 5.2305315,5.9574606 L 4.8338441,7.79214 L 8.1561014,7.79214 C 7.6602345,7.3789383 7.1891691,7.0235724 6.7429021,6.7260422"
       id="path2533" />
  </g>
</svg>
