/* XPM */
static char *icon[] = {
/* columns rows colors chars-per-pixel */
"32 32 5 1",
"  c #B64F53",
". c #E7DFE4",
"X c #E6E6E6",
"o c gray100",
"O c None",
/* pixels */
"OOOOOOOOOOOOOOOOOOOOOOOOOOOOOOOO",
"OOOOOOOOOOOOOOOOOOOOOOOOOOOOOOOO",
"OOOOOOOOOOOOOOOOOOOOOOOOOOOOOOOO",
"OOOOOOOOOOOOOOOOOOOOOOOOOOOOOOOO",
"OOOO    ................    OOOO",
"OOO      oooooooooooooo      OOO",
"OO        oooooooooooo        OO",
"OO         oooooooooo         OO",
"OO          oooooooo          OO",
"OO           oooooo           OO",
"OO    o       oooo       o    OO",
"OO    oo       oo       oo    OO",
"OO    ooo              ooo    OO",
"OO    oooo            oooo    OO",
"OO    ooooo          ooooo    OO",
"OO    oooooo        oooooo    OO",
"OO    ooooooo      ooooooo    OO",
"OO    oooooooo    oooooooo    OO",
"OO    ooooooooo  ooooooooo    OO",
"OO    oooooooo.oo.oooooooo    OO",
"OO    ooooooo.oooo.ooooooo    OO",
"OO    oooooo.oooooo.oooooo    OO",
"OO    ooooo.oooooooo.ooooo    OO",
"OO    oooo.oooooooooo.oooo    OO",
"OO    ooo.oooooooooooo.ooo    OO",
"OO    oo.oooooooooooooo.oo    OO",
"OO    o.oooooooooooooooo.o    OO",
"OO    .oooooooooooooooooo.    OO",
"OOO                          OOO",
"OOOO                        OOOO",
"OOOOOOOOOOOOOOOOOOOOOOOOOOOOOOOO",
"OOOOOOOOOOOOOOOOOOOOOOOOOOOOOOOO"
};
