/* XPM */
static char *ddskk[] = {
/* width height num_colors chars_per_pixel */
"    14    14       12            1",
/* colors */
". c none",
"# c #4040f8",
"a c #0000f8",
"b c #8080f8",
"c c #b8bcf8",
"d c #00fc00",
"e c #008080",
"f c #0040b8",
"g c #00bc40",
"h c #b8fcb8",
"i c #80fc80",
"j c #40fc40",
/* pixels */
".aaa..........",
"a.............",
".aa..a..a.....",
"...a.a.a......",
"aaa..aa...a..a",
"dddddadaddadad",
".ddddaddadaad.",
"..ddddddddada.",
"...ddddddda..a",
"...dddddddd...",
"....dddddd....",
"....ddddd.....",
".....ddd......",
"......d......."
};
